<?xml version="1.0" encoding="utf-8"?>
<!-- Generator: Adobe Illustrator 27.5.0, SVG Export Plug-In . SVG Version: 6.00 Build 0)  -->
<svg version="1.1" xmlns="http://www.w3.org/2000/svg" xmlns:xlink="http://www.w3.org/1999/xlink" x="0px" y="0px"
	 viewBox="0 0 750 500" style="enable-background:new 0 0 750 500;" xml:space="preserve">
<g id="BACKGROUND">
</g>
<g id="OBJECTS">
	<g>
		<path style="opacity:0.22;fill:#FFDF9C;" d="M120.51,378.693h520.605c6.083-6.443,11.19-13.989,15.617-21.618
			c6.641-11.446,12.475-23.581,14.861-36.598c1.663-9.073,0.824-20.044-6.825-25.197c-0.301-0.203-0.609-0.396-0.921-0.579
			c-13.522-7.911-37.289,2.296-34.106-22.559c2.079-16.233,21.68-59.427-6.916-63.08c-7.403-0.946-14.813,2.108-20.917,6.401
			c-6.104,4.293-11.232,9.806-16.887,14.676c-8.827,7.601-21.59,14.725-32.409,6.172c-5.062-4.002-6.906-10.773-8.028-17.128
			c-3.426-19.416-1.54-38.881-3.401-58.338c-2.702-28.237-21.912-54.606-49.017-67.282c-16.357-7.65-37.255-10.033-52.225-0.207
			c-20.878,13.705-20.168,41.985-24.136,65.556c-3.99,23.703-15.697,41.008-36.816,54.623
			c-21.118,13.615-52.018,15.375-70.782-0.983c-20.652-18.004-30.742-37.928-41.289-62.426
			c-10.632-24.695-26.69-41.325-54.561-46.696c-27.871-5.371-59.899,12.249-77.172,33.425
			c-43.01,52.729,6.39,126.326-12.288,138.123c-5.004,3.161-35.391-19.17-45.222,0.492C62.181,306.458,95.53,355.057,120.51,378.693
			z"/>
		<g>
			<g>
				<rect x="547.712" y="157.123" style="fill:#FFDDB4;" width="69.741" height="95.94"/>
				<rect x="558.234" y="168.916" style="fill:#FFFFFF;" width="48.697" height="72.355"/>
				<path style="opacity:0.41;fill:#FFDF9C;" d="M599.34,216.559c-0.529-0.412-1.248-0.305-1.797,0.051
					c-0.219-0.632-0.43-1.273-0.617-1.939c-0.001-3.526-0.003-7.052-0.005-10.579c-0.001-1.989-0.04-4.119-1.082-5.746
					c-1.042-1.627-3.49-2.29-4.644-0.758c1.248-1.728-0.437-4.681-2.435-4.469c-0.763,0.081-1.412,0.538-1.882,1.182
					c0.313-2.988,0.352-6.011,0.079-9.004c-0.223-2.447-1.074-5.384-3.274-5.84c-2.35-0.486-4.14,2.269-4.964,4.735
					c-1.959,5.865-2.255,12.386-0.835,18.435c-1.705,0.415-3.01,2.011-3.678,3.784c-0.667,1.773-0.8,3.725-0.925,5.639
					c0.057-4.232-0.91-8.476-2.776-12.179c-0.437-0.868-1.142-1.824-2.033-1.661c-0.698,0.128-2.471,1.221-3.142,4.701v30.783
					h34.503V222.02c0.133-0.379,0.251-0.766,0.347-1.165C600.543,219.345,600.499,217.462,599.34,216.559z"/>
			</g>
			<g>
				<rect x="467.422" y="104.604" style="fill:#FFDDB4;" width="69.741" height="95.94"/>
				<rect x="477.944" y="116.396" style="fill:#FFFFFF;" width="48.697" height="72.355"/>
				<path style="opacity:0.41;fill:#FFDF9C;" d="M513.019,175.336c-0.162,0.456,0.247,0.976,0.727,1.033
					c0.48,0.058,0.948-0.251,1.206-0.66c0.258-0.409,0.343-0.902,0.39-1.383c0.249-2.515-0.37-5.025-0.984-7.476
					c0.079,0.284,0.503,0.332,0.732,0.145c0.229-0.186,0.304-0.499,0.352-0.79c0.385-2.341-0.131-4.741-0.885-6.991
					c-0.754-2.25-1.748-4.42-2.365-6.711c-0.046-0.17-0.076-0.355-0.093-0.538c-0.487-1.121-0.693-2.359,0.218-3.295
					c1.184-1.217,2.56-1.803,6.017-3.027c3.457-1.224,3.181-6.865,2.185-7.61c-0.996-0.745-3.119,0.356-4.909-0.659
					c-1.791-1.014-0.841-5.392-6.815-6.17c-2.857-0.372-6.604-0.217-10.056,1.299c-0.868,0.381-1.579,1.004-2.186,1.785
					c-0.692,2.142-1.65,4.222-2.299,6.37c-1.022,3.386-2.014,11.434,3.907,11.618c6.45,0.202,8.069-9.164,8.73-13.702
					c0.091-0.627,0.525,15.358-9.791,14.711c-2.806-0.176-4.269-3.404-4.697-5.982c-0.202-1.218-0.172-2.404-0.004-3.569
					c-1.356,2.998-2.971,5.152-4.617,6.529c-1.726,1.444-2.568,1.916-2.743,3.826v27.083h26.562
					C512.195,179.259,512.673,177.31,513.019,175.336z"/>
			</g>
		</g>
		<g>
			<path style="fill:#FFC350;" d="M570.45,312.09c-2.74,1.555-4.978,3.828-6.95,6.247c-5.336,6.547-8.969,14.398-10.47,22.626
				c-1.049,5.751-1.02,11.892,1.521,17.184c0.275,0.573,0.624,1.176,1.224,1.419c0.889,0.36,1.935-0.283,2.335-1.135
				c0.4-0.853,0.327-1.835,0.246-2.768c-0.044,2.459-0.078,4.976,0.738,7.303c0.816,2.327,2.666,4.467,5.14,4.964
				c2.151,0.432,4.445-0.475,5.952-2.03c1.508-1.555,2.293-3.674,2.537-5.798c0.084,1.226,1.852,1.737,2.949,1.131
				c1.098-0.606,1.636-1.835,2.084-2.983c4.51-11.565,7.346-23.933,6.498-36.276c-0.234-3.414-0.844-7.121-3.059-9.898
				c-1.355-1.699-2.658-2.022-4.846-1.855C574.27,310.381,572.245,311.072,570.45,312.09z"/>
			<path style="fill:#FFC350;" d="M570.45,312.09c-2.74,1.555-4.978,3.828-6.95,6.247c-5.336,6.547-8.969,14.398-10.47,22.626
				c-1.049,5.751-1.02,11.892,1.521,17.184c0.275,0.573,0.624,1.176,1.224,1.419c0.889,0.36,1.935-0.283,2.335-1.135
				c0.4-0.853,0.327-1.835,0.246-2.768c-0.044,2.459-0.078,4.976,0.738,7.303c0.816,2.327,2.666,4.467,5.14,4.964
				c2.151,0.432,4.445-0.475,5.952-2.03c1.508-1.555,2.293-3.674,2.537-5.798c0.084,1.226,1.852,1.737,2.949,1.131
				c1.098-0.606,1.636-1.835,2.084-2.983c4.51-11.565,7.346-23.933,6.498-36.276c-0.234-3.414-0.844-7.121-3.059-9.898
				c-1.355-1.699-2.658-2.022-4.846-1.855C574.27,310.381,572.245,311.072,570.45,312.09z"/>
			<path style="fill:#FFC350;" d="M638.97,387.014c-0.934,1.361-3.24,1.666-4.012,0.193c1.94,5.91,3.798,12.766,0.741,18.128
				c-2.204,3.879-6.469,5.88-10.572,7.19c-12.552,4.001-25.927,3.727-39.028,3.422c-5.89-0.142-12.41-0.548-16.574-4.936
				c-2.722-2.884-3.93-7.068-4.042-11.141c-0.102-4.062,0.792-8.084,1.737-12.024c-0.66,0.792-2.031,0.305-2.488-0.63
				c-0.457-0.944-0.294-2.082-0.091-3.118c1.178-5.971,1.33-15.071,2.854-22.718c0.406-2.021-0.487-3.971-2.072-5.027
				c-0.691-0.467-1.513-0.762-2.407-0.813c-0.345-0.02-0.68-0.041-1.026-0.071c-10.795-0.711-13.639-6.723-13.456-14.898
				c0.112-5.057,10.105-7.414,11.892-8.693c1.787-1.29-1.361-17.884,13.03-22.403c2.681-0.843,5.332-1.747,8.104-2.153
				c0.041-0.01,0.071-0.01,0.112-0.02c-0.132-0.091-0.274-0.163-0.396-0.274c-0.376-0.315-0.731-0.752-0.66-1.239
				c0.102-0.66,0.914-0.924,1.584-1.005c2.315-0.274,4.672-0.102,6.916,0.518c-1.168-0.711-2.387-1.473-3.047-2.671
				c-0.65-1.198-0.487-2.966,0.711-3.615c0.782-0.437,1.757-0.284,2.63-0.051c4.56,1.198,8.48,3.981,12.207,6.916
				c-0.345-0.355-0.67-0.741-0.934-1.158c-0.223-0.355-0.416-0.802-0.203-1.158c0.254-0.447,0.914-0.376,1.412-0.233
				c3.26,0.995,6.134,3.229,7.881,6.154c0.396,0.66,0.731,1.351,0.985,2.072c3.473,1.32,6.814,2.996,9.688,5.322
				c0.203,0.163,0.416,0.345,0.579,0.548c0.051,0.061,0.091,0.112,0.122,0.173c0.173,0.284,0.254,0.599,0.315,0.924
				c0.203,0.924,0.345,1.869,0.427,2.813c0.274,3.026-0.081,5.961-0.914,8.744c-0.914,3.067-2.417,5.961-4.316,8.602
				c2.996,1.909,5.322,5.007,7.485,8.003c4.865,6.723,9.81,13.629,12.288,21.672c0.223,0.741,0.427,1.544,0.183,2.275
				c-0.254,0.721-1.168,1.229-1.757,0.762c2.376,3.097,4.001,6.835,4.682,10.755C639.823,383.805,639.905,385.654,638.97,387.014z"
				/>
			<path style="opacity:0.15;fill:#FF8558;" d="M638.97,387.014c-0.934,1.361-3.24,1.666-4.012,0.193
				c1.94,5.91,3.798,12.766,0.741,18.128c-2.204,3.879-6.469,5.88-10.572,7.19c-12.552,4.001-25.927,3.727-39.028,3.422
				c-5.89-0.142-12.41-0.548-16.574-4.936c-2.722-2.884-3.93-7.068-4.042-11.141c-0.102-4.062,0.792-8.084,1.737-12.024
				c-0.66,0.792-2.031,0.305-2.488-0.63c-0.457-0.944-0.294-2.082-0.091-3.118c1.178-5.971,1.33-15.071,2.854-22.718
				c0.406-2.021-0.487-3.971-2.072-5.027c8.388,1.076,17.031,0.274,25.084-2.326c0.772,1.594,2.762,2.478,4.458,2.001
				c1.706-0.487,2.925-2.295,2.742-4.052c0.66,0.904,1.95,1.29,2.996,0.884c1.046-0.406,1.747-1.554,1.625-2.671
				c2.183-5.677,3.016-11.872,2.397-17.924c5.281,1.604,10.877-2.6,16.249-2.184c-0.914,3.067-2.417,5.961-4.316,8.602
				c2.996,1.909,5.322,5.007,7.485,8.003c4.865,6.723,9.81,13.629,12.288,21.672c0.223,0.741,0.427,1.544,0.183,2.275
				c-0.254,0.721-1.168,1.229-1.757,0.762c2.376,3.097,4.001,6.835,4.682,10.755C639.823,383.805,639.905,385.654,638.97,387.014z"
				/>
			<g>
				<path d="M569.28,327.771c-0.036,1.532-0.779,2.635-1.659,2.464s-1.565-1.553-1.528-3.085s0.779-2.635,1.66-2.464
					C568.632,324.858,569.316,326.239,569.28,327.771z"/>
				<path d="M591.146,329.789c-0.066,1.642-1.038,2.833-2.17,2.661s-1.996-1.643-1.929-3.285c0.067-1.642,1.038-2.833,2.17-2.661
					C590.349,326.676,591.213,328.147,591.146,329.789z"/>
			</g>
			<path d="M565.37,339.704c-0.17,1.69-3.895,3.809-6.968,3.499c-3.073-0.309-4.33-2.929-4.16-4.619
				c0.17-1.69,2.509-1.38,5.582-1.07C562.897,337.823,565.54,338.014,565.37,339.704z"/>
			<path style="fill:#FF5650;" d="M583.101,361.051c-0.763,3.352-2.807,6.214-5.723,8.026c-0.872,0.518-1.99,0.981-3.12,0.491
				c-0.831-0.341-1.445-1.158-1.758-1.949c-0.3-0.79-0.327-1.594-0.382-2.385c-0.204-2.725-0.627-5.492-1.295-8.244
				c-0.504-2.126-1.24-4.374-2.875-6.159c-0.068-0.082-0.15-0.163-0.232-0.232c-0.286-0.3-0.613-0.559-0.968-0.804
				c0.627,0,1.254-0.082,1.908-0.232c1.008-0.232,1.962-0.559,2.902-0.967c0.109-0.041,0.218-0.095,0.341-0.15c0,0,0,0,0.014,0
				c1.622-0.722,3.148-1.662,4.619-2.684c0.232-0.164,0.463-0.313,0.681-0.491c0.3,0.15,0.572,0.327,0.845,0.518
				c0.15,0.109,0.3,0.232,0.436,0.354c1.39,1.145,2.371,2.657,3.107,4.183C583.319,353.87,583.85,357.699,583.101,361.051z"/>
			<path style="opacity:0.31;fill:#FF5650;" d="M581.602,350.327c-0.736-1.526-1.717-3.039-3.107-4.183
				c-0.136-0.122-0.286-0.245-0.436-0.354c-0.273-0.191-0.545-0.368-0.845-0.518c-0.191,0.155-0.394,0.289-0.596,0.43
				c1.055,0.568,2.028,1.487,2.604,2.186c1.672,2.03,3.451,5.239,2.516,7.9c-0.573,1.631-2.451,1.743-3.445,0.45
				c-1.195-1.555-1.448-3.55-2.288-5.297c-0.426-0.886-0.84-1.821-1.463-2.588c-0.25-0.309-0.51-0.585-0.754-0.873
				c-0.23,0.129-0.453,0.271-0.686,0.392c1.589,2.079,2.482,4.787,2.79,7.282c0.337,2.728-0.553,5.715-2.535,7.698
				c-0.441,0.441-0.906,0.753-1.374,0.962c0.049,0.474,0.099,0.949,0.135,1.421c0.054,0.79,0.082,1.594,0.381,2.385
				c0.314,0.79,0.927,1.608,1.758,1.949c1.131,0.49,2.248,0.027,3.12-0.491c2.916-1.812,4.96-4.674,5.723-8.026
				C583.85,357.699,583.319,353.87,581.602,350.327z"/>
			<path style="fill:#B94C21;" d="M580.879,343.2c-0.831,0.967-1.785,1.826-2.821,2.589c-0.15,0.123-0.3,0.232-0.45,0.341
				c-0.872,0.627-1.785,1.199-2.698,1.717c-2.18,1.24-4.592,2.398-7.099,2.739c-0.027,0-0.068,0.014-0.095,0.014
				c-0.504,0.055-0.995,0.082-1.513,0.027c-3.311-0.204-6.65-2.371-7.467-5.669c-0.232,1.104-0.722,2.167-1.594,2.902
				c-1.008,0.818-2.303,1.049-3.475,0.436c-1.145-0.613-2.044-1.812-2.603-2.957c-0.613-1.254-0.927-2.643-0.94-4.047
				c0-0.273,0.422-0.273,0.436,0c0.055,1.24,0.382,2.439,0.954,3.543c0.531,0.995,1.226,2.03,2.194,2.644
				c1.036,0.681,2.18,0.504,3.08-0.341c0.845-0.804,1.199-1.976,1.785-2.957c0.068-0.109,0.232-0.095,0.273,0.014
				c0.014,0.014,0.041,0.014,0.041,0.041c0.954,2.099,2.466,3.788,4.347,4.728c1.077,0.545,2.262,0.831,3.516,0.831
				c0.627,0,1.254-0.082,1.908-0.232c1.008-0.232,1.962-0.559,2.902-0.967c0.109-0.041,0.218-0.095,0.341-0.15c0,0,0,0,0.014,0
				c1.622-0.722,3.148-1.662,4.619-2.684c0.232-0.164,0.463-0.313,0.681-0.491c1.117-0.79,2.207-1.649,3.271-2.48
				C580.757,342.573,581.125,342.914,580.879,343.2z"/>
			<g>
				<path style="fill:#FFC350;" d="M622.732,366.023c-0.549,0.884-1.371,1.828-2.153,1.381c-0.548-0.315-0.833-1.198-1.391-1.452
					c-0.487-0.224-1.036,0.142-1.391,0.66c-0.345,0.508-0.579,1.158-0.894,1.716c-1.391,2.529-4.326,2.803-6.296,1.117
					c-1.96-1.696-3.026-4.865-3.28-8.003c-0.254-3.087,0.173-6.175,0.599-9.221c0,0,0,0,0-0.01c0.01-0.051,0.01-0.102,0.02-0.152
					c-0.02,0.01-0.03,0.01-0.051,0.01c-0.934,0.376-1.96-0.244-2.61-1.229c-0.65-1.005-0.975-2.326-1.219-3.626
					c-0.102-0.538-0.193-1.076-0.274-1.615c-1.198-7.86-0.203-16.208,2.397-23.48c0.609-1.706,1.584-3.24,2.823-4.499
					c1.239-1.27,2.762-2.275,4.448-2.935c3.219-1.127,6.733,0.427,9.262,3.351c1.584,1.828,2.823,4.133,3.778,6.652
					c0.559,1.503,1.026,3.077,1.412,4.672C630.866,341.71,628.845,356.03,622.732,366.023z"/>
				<g style="opacity:0.49;">
					<path style="fill:#FFC350;" d="M607.874,344.036c-0.559,1.28-2.072,2.163-3.453,1.808c-0.223-0.061-0.437-0.142-0.63-0.244
						c0.081,0.538,0.173,1.077,0.274,1.615c0.244,1.3,0.569,2.62,1.219,3.626c0.65,0.985,1.676,1.605,2.61,1.229
						C607.407,349.429,607.397,346.687,607.874,344.036z"/>
					<path style="fill:#FFC350;" d="M627.911,329.361c-0.386-1.594-0.853-3.169-1.412-4.672c-0.03,0.427-0.061,0.853-0.112,1.28
						c-0.183,1.584-0.508,3.26-1.594,4.428c-1.087,1.178-3.158,1.564-4.265,0.406c1.594,2.275,2.285,5.159,1.879,7.901
						c-0.163,1.137-0.589,2.356-1.594,2.915c-1.188,0.67-2.762,0.122-3.686-0.894c-0.914-1.016-1.32-2.376-1.706-3.687
						c1.828,6.53,2.478,13.395,1.899,20.149c-0.162,1.869-0.731,4.113-2.539,4.6c-1.848,0.508-3.504-1.239-4.438-2.904
						c-1.158-2.072-1.97-4.326-2.417-6.662c-0.427,3.047-0.853,6.134-0.599,9.221c0.254,3.138,1.32,6.307,3.28,8.003
						c1.97,1.686,4.905,1.412,6.296-1.117c0.315-0.559,0.548-1.208,0.894-1.716c0.355-0.518,0.904-0.884,1.391-0.66
						c0.559,0.254,0.843,1.137,1.391,1.452c0.782,0.447,1.604-0.498,2.153-1.381C628.845,356.03,630.866,341.71,627.911,329.361z"/>
				</g>
			</g>
			<path style="fill:#FFFFFF;" d="M555.265,338.693c-0.023,0.35,0.73,0.618,1.188,0.639c0.458,0.021,0.947-0.437,0.769-0.86
				c-0.092-0.219-0.324-0.348-0.555-0.402C556.13,337.944,555.288,338.343,555.265,338.693z"/>
			<path style="fill:#B94C21;" d="M609.428,367.584c-1.129-2.514-2.03-5.114-2.416-7.851c-0.388-2.756-0.313-5.568,0.242-8.295
				c0.055-0.271-0.158-0.468-0.423-0.423c-1.743,0.301-2.814-1.789-3.278-3.137c-0.607-1.763-0.83-3.625-0.791-5.485
				c0.08-3.803,1.353-7.317,2.07-11.008c0.05-0.256-0.286-0.338-0.383-0.105c-0.82,1.977-1.368,4.086-1.796,6.18
				c-0.421,2.058-0.687,4.167-0.59,6.271c0.089,1.906,0.44,3.936,1.33,5.643c0.638,1.225,1.721,2.335,3.127,2.339
				c-0.956,5.37-0.227,11.33,2.68,16.004C609.293,367.862,609.496,367.735,609.428,367.584z"/>
		</g>
		<g>
			<g>
				<path style="fill:#FF5650;" d="M443.539,393.638L443.539,393.638c-11.125,0-19.302-9.018-18.263-20.143l8.031-86.037
					c1.038-11.125,10.899-20.143,22.024-20.143l0,0c11.125,0,19.302,9.019,18.263,20.143l-8.031,86.037
					C464.524,384.62,454.663,393.638,443.539,393.638z"/>
				<path style="fill:#F2433A;" d="M497.631,393.637h-40.634c-11.292,0-19.591-9.154-18.537-20.445l8.282-88.725
					c1.054-11.292,11.062-20.445,22.354-20.445h40.634c11.292,0,19.591,9.154,18.537,20.445l-8.282,88.725
					C518.93,384.483,508.922,393.637,497.631,393.637z"/>
				<path style="fill:#FF5650;" d="M507.543,393.638L507.543,393.638c-11.125,0-19.302-9.018-18.263-20.143l8.031-86.037
					c1.038-11.125,10.899-20.143,22.023-20.143h0c11.125,0,19.301,9.019,18.263,20.143l-8.031,86.037
					C528.528,384.62,518.667,393.638,507.543,393.638z"/>
				<path style="opacity:0.31;fill:#FF5650;" d="M527.225,268.997c0.144,0.509,0.282,1.02,0.407,1.53
					c3.278,13.341,1.896,27.836-0.889,41.127c-1.711,8.166-4.255,16.178-7.84,23.721c-2.834,5.963-6.539,12.623-12.285,16.272
					c-4.589,2.914-9.781,2.655-13.651-1.331c-0.514-0.529-0.963-1.085-1.371-1.656l-2.318,24.835
					c-1.038,11.125,7.138,20.143,18.263,20.143h0c11.125,0,20.985-9.018,22.024-20.143l8.031-86.037
					C538.368,279.196,534.052,272.104,527.225,268.997z"/>
			</g>
			<g>
				<path style="fill:#57D9CD;" d="M422.327,290.068c0,10.206-1.158,20.778-4.997,27.918c-8.47,15.761-15.639,26.455-20.067,30.446
					c-4.255,3.839-14.157,1.513-22.342-4.113c-3.321-2.295-5.19-5.809-5.21-9.861c-0.01-1.31,0.264-2.651,0.995-3.727
					c0.457-0.67,1.046-1.239,1.259-2.041c0.213-0.741,0.081-1.523,0.416-2.244c0.427-0.914,1.127-1.706,2.102-2.041
					c0.985-0.355,2.133-0.193,3.037-0.721c1.93-1.137,1.148-4.032,1.32-6.266c0.132-1.747,0.995-3.341,1.838-4.875
					c7.505-13.629,15.01-27.247,22.525-40.876c1.909-3.463,8.399-11.384,16.208-12.298l0.081-0.112c0,0,0,0.041,0.02,0.102
					l0.183-0.031l0.701,4.113l-0.173,0.294c0.813,5.443,2.021,15.162,2.092,25.369C422.327,289.428,422.327,289.743,422.327,290.068
					z"/>
				<path style="opacity:0.5;fill:#57D9CD;" d="M422.095,282.005c-0.361,0.528-0.735,1.044-1.079,1.585
					c-5.336,8.404-7.6,17.536-10.537,26.905c-2.833,9.035-6.702,17.841-12.524,25.37c-3.244,4.195-7.943,12.024-13.673,13.174
					c5.343,1.777,10.291,1.819,12.981-0.608c4.428-3.991,11.598-14.685,20.068-30.446c3.839-7.139,4.996-17.711,4.996-27.918
					c0-0.325,0-0.64-0.01-0.965C422.3,286.692,422.218,284.312,422.095,282.005z"/>
				<path style="fill:#FFFFFF;" d="M422.352,290.151c-6.721,8.503-11.64,18.51-16.578,28.187c-2.694,5.268-5.407,10.49-8.496,15.438
					c-3.066,4.914-6.489,9.649-10.75,13.565c-0.046,0.055-0.399-0.316-0.343-0.362c4.774-4.619,8.811-10.052,12.161-15.837
					c5.81-10.043,10.458-21.013,16.572-31.228c2.263-3.776,4.714-7.456,7.424-10.83
					C422.352,289.444,422.352,289.792,422.352,290.151z"/>
			</g>
			<g>
				<g>
					<path style="fill:#FF8558;" d="M422.077,259.602c0,0,15.991-1.835,27.657-4.981c11.666-3.146,12.977-2.097,18.613,0.786
						c5.636,2.884,24.511,10.486,26.084,11.666c1.573,1.18-17.302,16.647-41.552,11.404
						C428.631,273.234,422.077,259.602,422.077,259.602z"/>
					<path style="opacity:0.15;fill:#FF8558;" d="M494.432,267.522c-1.145-0.858-11.451-5.118-19.151-8.485
						c-0.265,0.29-0.529,0.573-0.784,0.84c-4.515,4.728-9.902,8.269-16.029,10.564c-5.595,2.096-13.085,3.993-19.987,3.633
						c3.908,1.892,8.651,3.609,14.4,4.852C477.129,284.169,496.005,268.702,494.432,267.522z"/>
				</g>
				<g>
					<defs>
						<polygon id="SVGID_1_" points="445.597,235.882 468.254,231.385 469.638,259.577 448.018,263.728 						"/>
					</defs>
					<use xlink:href="#SVGID_1_"  style="overflow:visible;fill:#FF8558;"/>
					<clipPath id="SVGID_00000030447094483106089420000007286282495959822515_">
						<use xlink:href="#SVGID_1_"  style="overflow:visible;"/>
					</clipPath>
					<path style="clip-path:url(#SVGID_00000030447094483106089420000007286282495959822515_);fill:#FF8558;" d="M444.298,249.817
						c3.196,1.445,6.934,0.124,10.037-1.512c6.796-3.582,12.771-8.709,17.344-14.881c0.817-1.103,1.624-2.52,1.062-3.772
						c-0.625-1.394-2.491-1.619-4.016-1.527c-10.745,0.652-25.873,4.597-27.815,9.516
						C438.969,242.56,441.649,248.62,444.298,249.817z"/>
				</g>
				<g>
					<path d="M492.528,195.835c-0.33-1.856-4.725-5.02-10.766-3.076c-5.926,1.907-11.198,5.946-15.064,10.969
						s-6.255,11.166-6.769,17.377c-0.132,1.59-0.138,3.216,0.345,4.7c0.905,2.78,3.408,4.898,5.741,6.411
						C479.382,240.882,497.407,223.312,492.528,195.835z"/>
					<path d="M425.19,182.404c-0.804,0.955-1.291,2.135-1.693,3.317c-1.021,3.001-1.575,6.16-1.637,9.328
						c-0.027,1.384,0.046,2.803,0.571,4.084c0.731,1.785,2.257,3.115,3.832,4.228c0.975,0.689,2.137,1.35,3.299,1.076
						c0.776-0.183,1.402-0.761,1.874-1.404c1.645-2.242,1.732-5.228,1.739-8.009c0.006-2.667-0.006-5.367-0.67-7.951
						c-0.494-1.924-1.384-3.811-2.766-5.258C428.223,180.229,426.57,180.765,425.19,182.404z"/>
					<g>
						<path style="fill:#FF8558;" d="M464.68,238.845c-4.936,3.666-10.785,6.053-16.848,5.961
							c-9.82-0.152-16.391-4.397-20.281-11.151c-1.158-1.99-2.072-4.194-2.773-6.581c-1.016-3.473-1.564-7.322-1.706-11.415
							c-0.01-0.345-0.02-0.701-0.03-1.056c-0.091-5.22,0.477-10.816,1.594-16.554c4.783-24.404,26.709-31.889,42.603-21.184
							c6.002,4.042,10.653,10.613,12.837,17.996c0.163,0.569,0.315,1.148,0.457,1.727
							C484.382,212.725,476.309,230.202,464.68,238.845z"/>
						<path style="opacity:0.15;fill:#FF8558;" d="M480.533,196.587c-0.142-0.579-0.294-1.158-0.457-1.727
							c-2.183-7.383-6.835-13.954-12.837-17.996c-5.915-3.984-12.665-5.444-19.056-4.454c1.125,0.71,2.174,1.441,3.124,2.169
							c9.187,7.037,16.831,17.785,18.414,29.435c1.69,12.443-4.771,23.945-14.231,31.62c-5.296,4.296-11.888,7.4-18.234,6.973
							c2.996,1.359,6.502,2.136,10.576,2.199c6.063,0.091,11.912-2.295,16.848-5.961
							C476.309,230.202,484.382,212.725,480.533,196.587z"/>
						<path style="opacity:0.44;fill:#FF5650;" d="M432.223,229.075c-0.071,1.239-0.305,2.549-1.147,3.453
							c-0.873,0.934-2.224,1.229-3.524,1.127c-1.158-1.99-2.072-4.194-2.773-6.581c-1.016-3.473-1.564-7.322-1.706-11.415
							c-0.01-0.345-0.02-0.701-0.03-1.056c0.467-0.335,0.985-0.559,1.564-0.62c1.686-0.152,3.097,1.209,4.072,2.59
							C431.228,220.179,432.497,224.667,432.223,229.075z"/>
						<path style="opacity:0.44;fill:#FF5650;" d="M461.304,233.295c0.277-0.156,0.545-0.319,0.801-0.487
							c4.278-2.797,9.61-9.09,6.615-14.905c-1.48-2.873-4.888-4.109-7.835-3.444c-2.948,0.665-5.431,2.912-7.227,5.559
							c-1.341,1.977-2.384,4.271-2.584,6.725c-0.201,2.454,0.541,5.076,2.258,6.666C455.595,235.504,458.826,234.69,461.304,233.295
							z"/>
					</g>
					<g>
						<defs>
							<path id="XMLID_6_" d="M459.933,164.885c-0.02-0.927,0.453-1.807,1.086-2.486c1.431-1.535,3.639-2.167,5.736-2.076
								c2.096,0.091,4.11,0.826,6.028,1.677c-0.295-1.437,0.407-2.959,1.531-3.902c1.124-0.943,2.605-1.369,4.068-1.484
								c2.871-0.226,5.757,0.67,8.219,2.164c2.462,1.494,4.533,3.559,6.363,5.783c2.205,2.679,4.133,5.703,4.832,9.101
								c0.699,3.398-0.01,7.23-2.472,9.674c-2.734,2.714-7.08,3.218-10.813,2.266c-3.733-0.952-7.014-3.131-10.238-5.24
								C472.035,178.898,459.972,166.634,459.933,164.885z"/>
						</defs>
						<use xlink:href="#XMLID_6_"  style="overflow:visible;"/>
						<clipPath id="XMLID_00000094615635618319961900000004910610650725924785_">
							<use xlink:href="#XMLID_6_"  style="overflow:visible;"/>
						</clipPath>
						<path style="opacity:0.8;clip-path:url(#XMLID_00000094615635618319961900000004910610650725924785_);fill:#27287A;" d="
							M461.764,164.285c1.346-0.63,3.034-0.61,4.362,0.052c1.231,0.613,2.103,1.702,3.309,2.356c2.106,1.141,4.796,0.751,7.12,0.045
							c2.324-0.706,4.623-1.704,7.073-1.682c3.019,0.027,5.793,1.631,7.837,3.655c3.005,2.976,4.779,7.125,4.077,11.117
							c-0.702,3.992-4.171,7.623-8.557,8.244c-3.172,0.449-6.365-0.62-9.218-1.96c-4.296-2.018-8.329-4.817-10.634-8.688
							c-1.362-2.287-2.067-4.852-3.316-7.191c-0.447-0.836-0.997-1.676-1.865-2.165c-0.909-0.512-2.444-0.057-2.489-1.238
							C459.424,165.837,460.915,164.682,461.764,164.285z"/>
					</g>
					<g>
						<path id="XMLID_5_" d="M469.867,215.071c2.034,0.246,4.264-4.262,6.313-4.242c1.411,0.014,2.037,1.253,2.76,2.253
							c0.352,0.487,0.813,0.945,1.401,1.068c0.403,0.084,0.821,0.002,1.22-0.099c4.329-1.096,7.68-4.455,9.555-8.415
							c2.014-4.255,1.942-8.914,0.797-13.394c-0.674-2.638-1.582-5.219-2.743-7.682c-1.295-2.745-2.607-5.518-4.496-7.893
							c-2.905-3.652-7.021-6.16-11.291-8.043c-2.622-1.156-5.365-2.112-8.215-2.405c-2.388-0.245-4.796-0.02-7.186,0.205
							c-3.58,0.337-7.218,0.688-10.554,2.031c-0.821,0.331-1.652,0.746-2.18,1.456c-0.592,0.797-0.715,1.838-0.817,2.825
							c-0.352,3.388-0.644,7.056,1.134,9.961c2.195,3.587,6.453,4.674,10.03,6.345c4.365,2.04,6.904,6.096,8.54,10.507
							c0.815,2.199,1.406,4.486,1.888,6.655C466.646,209.023,466.207,214.628,469.867,215.071z"/>
						<g>
							<defs>
								<path id="XMLID_4_" d="M434.486,173.737c-1.096-0.788-2.506-1.339-3.905-1.16c-1.32,0.169-2.464,0.98-3.142,1.994
									c-0.677,1.014-0.932,2.211-0.966,3.388c-0.116,4.135,1.232,8.076,8.15,13.909c6.918,5.833,21.515,7.93,23.572,6.149
									c2.056-1.781-1.987-6.443-3.381-7.325c-0.237-0.15-0.495,0.002-0.562,0.253c-0.067,0.251,0.067,0.507,0.211,0.731
									c1.292,2.005,9.573,7.064,13.16,6.612c3.759-0.474,2.152-2.984,0.97-4.278c1.71,1.577,6.217,3.063,8.049,1.474
									c1.831-1.589,0.309-10.957-10.659-20.528c-1.249-1.09-5.015-3.026-6.559-3.764c-1.971-0.943-4.158-1.475-6.346-1.907
									c-2.051-0.405-4.127-0.729-6.225-0.834c-1.44-0.072-2.884-0.041-4.326-0.01c-1.684,0.036-3.438,0.089-4.923,0.79
									C435.531,170.211,434.552,171.662,434.486,173.737z"/>
							</defs>
							<use xlink:href="#XMLID_4_"  style="overflow:visible;"/>
							<clipPath id="XMLID_00000023253862152884994720000007481261753852647834_">
								<use xlink:href="#XMLID_4_"  style="overflow:visible;"/>
							</clipPath>
							<path style="opacity:0.8;clip-path:url(#XMLID_00000023253862152884994720000007481261753852647834_);fill:#27287A;" d="
								M478.63,184.538c-0.746-2.861-3.957-4.92-7.111-6.865c-1.286-0.793-2.76-1.629-4.893-1.578
								c-2.263,0.054-4.606,1.119-6.249,2.31c-1.65,1.196-2.824,2.552-4.391,3.792c-1.573,1.245-3.763,2.441-6.163,2.745
								c-1.734,0.219-3.301-0.06-4.687-0.427c-1.39-0.368-2.704-0.829-4.302-0.989c-1.604-0.16-3.62,0.047-5.106,0.823
								c-1.228,0.641-7.426,3.731-2.968,7.784c1.107,1.007,2.52,1.885,4.237,2.541c1.71,0.654,3.887,1.018,6.277,0.777
								c2.377-0.241,4.955-1.155,6.354-2.453c0.36-0.335,0.667-0.707,1.211-0.952c1.067-0.481,2.25-0.187,3.309-0.063
								c2.186,0.256,5.049-0.466,6.799-1.708c0.964-0.684,1.628-1.511,2.801-2.064c1.581-0.745,3.56-0.74,5.075-0.461
								c1.51,0.278,2.823,0.778,4.462,0.873c1.076,0.063,2.33-0.075,3.365-0.538C478.562,187.229,478.932,185.692,478.63,184.538z"
								/>
						</g>
					</g>
					<g>
						<path d="M431.582,211.405c0,1.602-0.784,2.901-1.751,2.901c-0.967,0-1.75-1.299-1.75-2.901c0-1.602,0.784-2.901,1.75-2.901
							C430.798,208.505,431.582,209.803,431.582,211.405z"/>
						<path d="M454.716,211.982c0,1.602-0.784,2.901-1.75,2.901c-0.967,0-1.751-1.299-1.751-2.901s0.784-2.901,1.751-2.901
							C453.933,209.081,454.716,210.38,454.716,211.982z"/>
						<path style="fill:#B94C21;" d="M439.943,215.797c-0.193-0.145-0.399-0.273-0.628-0.354c-0.502-0.178-1.017-0.305-1.547-0.36
							c-0.107-0.011-0.216-0.002-0.323-0.009c0.262-0.542,0.372-1.191,0.474-1.768c0.116-0.654,0.176-1.321,0.207-1.984
							c0.064-1.349-0.035-2.715-0.489-3.995c-0.091-0.257-0.441-0.142-0.441,0.103c0.001,1.315,0.083,2.632,0.019,3.948
							c-0.031,0.642-0.105,1.279-0.193,1.915c-0.08,0.584-0.236,1.17-0.248,1.761c-0.169-0.001-0.337-0.023-0.505-0.015
							c-0.504,0.024-1.06,0.063-1.542,0.224c-1.064,0.355-0.989,1.532-0.811,2.432c0.195,0.987,0.585,1.996,1.288,2.732
							c0.196,0.206,0.543-0.071,0.439-0.315c-0.336-0.788-0.658-1.547-0.747-2.409c-0.037-0.357-0.068-0.744,0.003-1.099
							c0.065-0.323,0.306-0.305,0.606-0.345c0.83-0.11,1.643-0.078,2.469,0.041c0.408,0.059,0.809,0.171,1.216,0.23
							c0.19,0.028,0.43,0.055,0.621,0.047c0.147-0.006,0.314,0.025,0.465-0.085c0.057-0.042,0.095-0.116,0.085-0.188
							C440.328,216.072,440.12,215.93,439.943,215.797z"/>
						<path d="M432.687,199.477c-0.993-0.187-2.051-0.109-2.995,0.261c-1.894,0.743-3.494,2.602-4.021,4.564
							c-0.068,0.252,0.267,0.374,0.406,0.171c1.024-1.489,2.046-3.058,3.834-3.707c0.771-0.279,1.61-0.393,2.421-0.234
							c0.4,0.079,0.769,0.214,1.129,0.403c0.349,0.183,0.705,0.458,1.114,0.419c0.159-0.015,0.264-0.115,0.278-0.278
							C434.934,200.111,433.425,199.616,432.687,199.477z"/>
						<path d="M448.646,199.88c1.405-0.225,2.903-0.132,4.239,0.314c2.68,0.895,4.946,3.135,5.692,5.498
							c0.096,0.304-0.378,0.45-0.575,0.206c-1.449-1.794-2.896-3.685-5.427-4.465c-1.091-0.337-2.279-0.474-3.426-0.281
							c-0.566,0.095-1.088,0.258-1.598,0.486c-0.494,0.221-0.998,0.552-1.576,0.505c-0.226-0.018-0.374-0.139-0.393-0.335
							C445.467,200.645,447.602,200.048,448.646,199.88z"/>
						<g>
							<path style="fill:#FFFFFF;" d="M434.996,222.947c0.6-0.6,2.279,0.566,6.523,0.445c4.244-0.121,6.846-2.154,7.747-1.353
								c0.9,0.8,0.127,6.11-6.875,6.81C435.388,229.55,434.095,223.848,434.996,222.947z"/>
						</g>
					</g>
					<g>
						<path style="fill:#FF8558;" d="M473.091,212.658c2.143-3.812,5.805-6.565,10.094-4.399c1.395,0.704,2.29,2.184,2.571,3.722
							c0.28,1.537,0.013,3.128-0.45,4.621c-1.169,3.768-3.728,7.215-7.313,8.862c-1.357,0.623-3,0.963-4.308,0.242
							c-1.793-0.988-2.44-3.254-2.591-5.164C470.911,218.204,471.664,215.196,473.091,212.658z"/>
						<path style="opacity:0.15;fill:#FF8558;" d="M473.091,212.658c2.143-3.812,5.805-6.565,10.094-4.399
							c1.395,0.704,2.29,2.184,2.571,3.722c0.28,1.537,0.013,3.128-0.45,4.621c-1.169,3.768-3.728,7.215-7.313,8.862
							c-1.357,0.623-3,0.963-4.308,0.242c-1.793-0.988-2.44-3.254-2.591-5.164C470.911,218.204,471.664,215.196,473.091,212.658z"/>
						<path style="fill:#B94C21;" d="M482.816,212.118c-0.375-0.369-0.876-0.578-1.393-0.625c-1.198-0.11-2.335,0.568-3.119,1.439
							c-0.813,0.903-1.451,2.024-1.992,3.111c-0.565,1.135-0.94,2.372-1.06,3.638c-0.024,0.252,0.396,0.312,0.439,0.06
							c0.351-2.058,1.466-4.035,2.725-5.665c0.193-0.25,0.411-0.489,0.642-0.715c0.465,0.948,0.653,2.018,0.552,3.074
							c-0.122,1.275-0.593,2.375-1.169,3.499c-0.058,0.113,0.085,0.238,0.179,0.14c1.781-1.855,2.156-4.863,0.831-7.069
							c0.409-0.319,0.87-0.559,1.392-0.635c0.816-0.12,1.875,0.31,2.223,1.107c0.065,0.149,0.33,0.078,0.31-0.085
							C483.316,212.901,483.171,212.467,482.816,212.118z"/>
						<path style="fill:#FFFFFF;" d="M478.915,213.486c1.162-0.329,2.499,0.083,3.274,1.009c0.775,0.926,0.945,2.315,0.416,3.401
							c-0.444,0.911-1.289,1.547-2.105,2.148c-3.02,2.225-8.668,6.796-9.301,6.826c-0.633,0.029-1.931-1.614-1.619-2.343
							c0.311-0.729,4.318-3.264,5.697-5.258C476.619,217.326,476.009,214.253,478.915,213.486z"/>
					</g>
				</g>
			</g>
			<g>
				<defs>
					<path id="XMLID_2_" d="M492.52,323.86c5.35-11.49,16.664-44.353,14.542-50.011c-1.148-3.061-6.217-5.904-10.416-7.513
						c-1.491-0.572-3.161-0.44-4.561,0.329c-11.182,6.146-26.143,10.466-39.027,9.249c-13.681-1.293-21.04-6.105-30.352-16.891
						c-1.37,0.01-2.763,0.063-4.141,0.209c-1.023,0.109-1.871,0.889-2.122,1.955c-1.6,6.797-7.468,31.83-8.991,39.899
						c-0.933,4.943-1.682,9.99-1.277,15.014c0.404,5.024,2.062,10.078,5.376,13.669c0.717,0.777,1.552,1.574,1.691,2.654
						c0.109,0.844-0.241,1.705-0.102,2.544c0.335,2.02,3.052,2.503,3.886,4.352c0.874,1.939-0.71,4.024-1.519,5.994
						c-0.828,2.017-0.849,3.424-0.529,5.6c0.392,2.659-0.251,14.656,0.141,17.314c0.087,0.591,0.204,1.238,0.644,1.608
						c0.287,0.242,0.663,0.318,1.024,0.387c7.266,1.395,14.539,2.79,21.881,3.614c14.228,1.596,37.552,4.088,51.629,1.369
						c-1.797-12.688-6.188-15.674-2.643-31.932C489.043,336.908,489.802,329.697,492.52,323.86z"/>
				</defs>
				<use xlink:href="#XMLID_2_"  style="overflow:visible;fill:#96F8FF;"/>
				<clipPath id="XMLID_00000142892470481589420510000013991363723173416344_">
					<use xlink:href="#XMLID_2_"  style="overflow:visible;"/>
				</clipPath>
				<path style="clip-path:url(#XMLID_00000142892470481589420510000013991363723173416344_);fill:#57D9CD;" d="M412.451,293.325
					c-0.51,0.204-2.52,10.253-2.259,16.162c0.261,5.909,13.816,7.56,15.38,1.13c1.564-6.43,3.215-12.773,1.738-13.555
					C425.832,296.279,413.32,292.977,412.451,293.325z"/>
				<path style="opacity:0.2;clip-path:url(#XMLID_00000142892470481589420510000013991363723173416344_);fill:#57D9CD;" d="
					M512.994,289.861c-1.497-2.813-3.398-5.662-6.332-6.904c-4.207-1.781-9.195,0.415-12.279,3.785
					c-3.084,3.371-4.808,7.725-6.989,11.74c-9.94,18.299-31.032,29.913-51.81,28.529c2.169,3.483,9.341,1.808,10.157,5.829
					c0.552,2.723-2.756,4.509-5.468,5.109c-9.314,2.061-34.539-3.718-41.291,5.903c-7.435,10.595-6.742,26.605,1.51,36.577
					c6.961,8.411,18.52,11.435,29.408,12.235c17.858,1.312,36.194-2.205,51.802-10.979c15.609-8.774,28.33-22.921,34.429-39.756
					C522.231,325.095,521.407,305.667,512.994,289.861z"/>
				<path style="clip-path:url(#XMLID_00000142892470481589420510000013991363723173416344_);fill:#FFFFFF;" d="M419.561,257.212
					c0,0,3.335,16.284,28.84,21.189c25.505,4.905,52.972-12.556,52.972-12.556L419.561,257.212z"/>
				<path style="clip-path:url(#XMLID_00000142892470481589420510000013991363723173416344_);fill:#FFFFFF;" d="M412.069,292.729
					c0.252-0.85,15.757,3.369,16.795,4.107s-8.775,5.06-10.379,4.359C416.881,300.495,411.597,294.322,412.069,292.729z"/>
			</g>
		</g>
		<g>
			<polygon style="fill:#FFFFFF;" points="161.94,168.147 114.181,373.966 339.415,373.966 249.498,167.579 			"/>
			<rect x="202.708" y="170.221" style="fill:#FFDDB4;" width="6.322" height="243.41"/>
			<polygon style="fill:#FFDDB4;" points="258.664,172.752 153.077,172.752 179.004,94.757 184.326,94.646 186.926,94.585 
				197.792,94.361 200.351,94.3 213.229,94.026 215.706,93.975 224.227,93.793 226.085,93.752 227.68,93.721 			"/>
			<path style="opacity:0.2;fill:#FFC350;" d="M184.044,131.007c-3.271-11.827-3.323-24.286-1.255-36.329l-3.785,0.079
				l-25.927,77.995h66.675C202.71,165.073,189.321,150.089,184.044,131.007z"/>
			<g>
				<path style="fill:#FFDDB4;" d="M189.322,176.397c0,0.633-0.514,1.147-1.147,1.147c-0.633,0-1.147-0.514-1.147-1.147
					c0-0.633,0.513-1.147,1.147-1.147C188.808,175.25,189.322,175.763,189.322,176.397z"/>
				<path style="fill:#FFDDB4;" d="M189.322,186.941c0,0.633-0.514,1.147-1.147,1.147c-0.633,0-1.147-0.514-1.147-1.147
					c0-0.633,0.513-1.147,1.147-1.147C188.808,185.794,189.322,186.307,189.322,186.941z"/>
				<path style="fill:#FFDDB4;" d="M189.322,197.484c0,0.633-0.514,1.147-1.147,1.147c-0.633,0-1.147-0.514-1.147-1.147
					c0-0.633,0.513-1.147,1.147-1.147C188.808,196.337,189.322,196.851,189.322,197.484z"/>
				<path style="fill:#FFDDB4;" d="M189.322,192.212c0,0.633-0.514,1.147-1.147,1.147c-0.633,0-1.147-0.514-1.147-1.147
					c0-0.633,0.513-1.147,1.147-1.147C188.808,191.066,189.322,191.579,189.322,192.212z"/>
				<path style="fill:#FFDDB4;" d="M189.322,202.756c0,0.633-0.514,1.147-1.147,1.147c-0.633,0-1.147-0.514-1.147-1.147
					c0-0.633,0.513-1.147,1.147-1.147C188.808,201.609,189.322,202.123,189.322,202.756z"/>
				<path style="fill:#FFDDB4;" d="M189.322,215.813c0,0.633-0.514,1.147-1.147,1.147c-0.633,0-1.147-0.514-1.147-1.147
					c0-0.633,0.078-4.339,1.147-4.339C189.244,211.473,189.322,215.179,189.322,215.813z"/>
				<path style="fill:#FFDDB4;" d="M189.322,208.028c0,0.633-0.514,1.147-1.147,1.147c-0.633,0-1.147-0.514-1.147-1.147
					c0-0.633,0.513-1.147,1.147-1.147C188.808,206.881,189.322,207.395,189.322,208.028z"/>
				<path style="fill:#FFDDB4;" d="M189.322,181.669c0,0.633-0.514,1.147-1.147,1.147c-0.633,0-1.147-0.514-1.147-1.147
					c0-0.633,0.513-1.147,1.147-1.147C188.808,180.522,189.322,181.035,189.322,181.669z"/>
			</g>
			<g style="opacity:0.2;">
				<path style="fill:#FFC350;" d="M186.926,94.585l-20.403,78.167h-5.007c3.321-11.537,19.357-67.098,22.809-78.107L186.926,94.585
					z"/>
				<path style="fill:#FFC350;" d="M200.351,94.3l-5.149,78.452h-6.987c1.401-11.801,8.267-69.779,9.577-78.391L200.351,94.3z"/>
				<path style="fill:#FFC350;" d="M225.395,172.752h-6.906l-5.26-78.726l2.478-0.051
					C216.59,98.728,223.547,157.265,225.395,172.752z"/>
				<path style="fill:#FFC350;" d="M252.398,172.752h-5.088l-23.084-78.96l1.858-0.041
					C230.056,105.146,250.865,168.121,252.398,172.752z"/>
			</g>
		</g>
		<g>
			<g>
				<rect x="123.077" y="401.405" style="fill:#FFC350;" width="512.745" height="25.267"/>
				<rect x="123.082" y="401.4" style="fill:#FFC350;" width="512.741" height="14.63"/>
				<g>
					<rect x="101.232" y="364.172" style="fill:#FFDF9C;" width="556.443" height="46.325"/>
				</g>
				<rect x="101.232" y="398.001" style="opacity:0.49;fill:#FFDF9C;" width="556.443" height="12.496"/>
			</g>
		</g>
		<g>
			<path style="opacity:0.5;fill:#FFC350;" d="M422.748,372.564c-8.379,4.963-29.368,4.068-65.896,4.068s-61.991-0.802-61.991-3.498
				s29.612-4.881,66.14-4.881S431.127,367.601,422.748,372.564z"/>
			<polygon style="fill:#36349E;" points="405.609,375.176 293.081,375.176 293.081,371.781 421.873,367.289 421.873,370.684 			"/>
			<polygon style="fill:#5565EB;" points="405.609,371.781 293.081,371.781 309.345,367.289 421.873,367.289 			"/>
		</g>
		<g>
			<path style="opacity:0.5;fill:#FFC350;" d="M339.323,381.594c0,1.797-27.9,3.254-62.317,3.254
				c-34.417,0-62.317-1.457-62.317-3.254s27.9-3.254,62.317-3.254C311.423,378.34,339.323,379.797,339.323,381.594z"/>
			<rect x="267.071" y="320.518" style="fill:#27287A;" width="19.871" height="56.085"/>
			<path style="opacity:0.2;fill:#27287A;" d="M278.067,320.518c0.124,15.212-2.702,29.191-7.543,43.853
				c-1.133,3.432-2.227,7.019-3.454,10.533v1.699h19.871v-56.085H278.067z"/>
			<rect x="267.071" y="320.518" width="19.871" height="9.681"/>
			<rect x="192.003" y="227.653" style="fill:#27287A;" width="170.004" height="97.981"/>
			<rect x="264.667" y="227.653" style="opacity:0.2;fill:#27287A;" width="26.786" height="5.509"/>
			<path style="opacity:0.2;fill:#27287A;" d="M349.544,227.65c-2.351,8.575-5.588,16.968-9.363,24.657
				c-12.729,25.923-38.575,42.694-64.94,52.495c-14.875,5.53-30.766,8.709-46.4,11.234c-11.992,1.937-24.887,3.862-36.837,1.043
				v8.558h170.004V227.65H349.544z"/>
			<g style="opacity:0.5;">
				<g>
					<path d="M342.469,281.013H211.545c-0.255,0-0.462-0.207-0.462-0.461v-0.014c0-0.255,0.207-0.462,0.462-0.462h130.924
						c0.255,0,0.461,0.207,0.461,0.462v0.014C342.93,280.807,342.723,281.013,342.469,281.013z"/>
				</g>
				<g>
					<path d="M342.469,277.971H211.545c-0.255,0-0.462-0.207-0.462-0.462v-0.014c0-0.255,0.207-0.462,0.462-0.462h130.924
						c0.255,0,0.461,0.207,0.461,0.462v0.014C342.93,277.765,342.723,277.971,342.469,277.971z"/>
				</g>
				<g>
					<path d="M342.469,274.929H211.545c-0.255,0-0.462-0.207-0.462-0.462v-0.014c0-0.255,0.207-0.462,0.462-0.462h130.924
						c0.255,0,0.461,0.207,0.461,0.462v0.014C342.93,274.723,342.723,274.929,342.469,274.929z"/>
				</g>
				<g>
					<path d="M342.469,271.887H211.545c-0.255,0-0.462-0.207-0.462-0.462v-0.014c0-0.255,0.207-0.462,0.462-0.462h130.924
						c0.255,0,0.461,0.207,0.461,0.462v0.014C342.93,271.681,342.723,271.887,342.469,271.887z"/>
				</g>
			</g>
			<g>
				<path style="fill:#36349E;" d="M288.597,231.154h-23.18v-6.379c0-2.878,2.333-5.211,5.211-5.211h12.758
					c2.878,0,5.211,2.333,5.211,5.211V231.154z"/>
				<path style="fill:#57D9CD;" d="M283.819,224.793c0,0.737-0.597,1.334-1.334,1.334s-1.334-0.597-1.334-1.334
					c0-0.737,0.597-1.334,1.334-1.334S283.819,224.056,283.819,224.793z"/>
				<path style="fill:#27287A;" d="M277.777,225.588h-7.445c-0.435,0-0.791-0.356-0.791-0.791v-0.025
					c0-0.435,0.356-0.791,0.791-0.791h7.445c0.435,0,0.791,0.356,0.791,0.791v0.025
					C278.568,225.232,278.212,225.588,277.777,225.588z"/>
			</g>
			<g>
				<rect x="203.827" y="290.607" style="fill:#36349E;" width="146.36" height="16.93"/>
				<path style="opacity:0.14;fill:#27287A;" d="M213.067,299.633c15.655-2.1,31.45-3.264,47.222-4.027
					c17.983-0.869,35.965-1.465,53.968-1.603c8.622-0.066,17.244-0.104,25.864-0.298c3.351-0.075,6.708-0.239,10.065-0.4v-2.698
					h-146.36v11.248C206.675,300.486,210.178,300.02,213.067,299.633z"/>
				<rect x="203.827" y="290.607" style="fill:#27287A;" width="146.36" height="2.309"/>
				<path style="fill:#5565EB;" d="M217.754,302.344h-0.168c-1.261,0-2.292-1.031-2.292-2.292v-0.071
					c0-1.261,1.031-2.292,2.292-2.292h0.168c1.261,0,2.292,1.031,2.292,2.292v0.071
					C220.046,301.313,219.015,302.344,217.754,302.344z"/>
				<path style="fill:#27287A;" d="M217.67,298.433c-0.871,0-1.583,0.712-1.583,1.583c0,0.871,0.712,1.583,1.583,1.583
					s1.583-0.712,1.583-1.583C219.253,299.146,218.541,298.433,217.67,298.433z"/>
				<path style="fill:#27287A;" d="M338.056,302.404h-4.092c-1.293,0-2.35-1.058-2.35-2.35v-0.073c0-1.293,1.058-2.35,2.35-2.35
					h4.092c1.293,0,2.351,1.058,2.351,2.35v0.073C340.407,301.346,339.349,302.404,338.056,302.404z"/>
				<path style="fill:#27287A;" d="M337.764,301.461h-3.507c-0.782,0-1.422-0.64-1.422-1.422v-0.044c0-0.782,0.64-1.422,1.422-1.422
					h3.507c0.782,0,1.422,0.64,1.422,1.422v0.044C339.186,300.821,338.546,301.461,337.764,301.461z"/>
				<path style="fill:#27287A;" d="M235.083,301.461h-5.942c-0.782,0-1.422-0.64-1.422-1.422v-0.044c0-0.782,0.64-1.422,1.422-1.422
					h5.942c0.782,0,1.422,0.64,1.422,1.422v0.044C236.505,300.821,235.865,301.461,235.083,301.461z"/>
				<path style="fill:#27287A;" d="M234.903,299.104h-5.581c-0.502,0-0.912,0.41-0.912,0.912c0,0.502,0.41,0.912,0.912,0.912h5.581
					c0.502,0,0.912-0.41,0.912-0.912C235.815,299.515,235.404,299.104,234.903,299.104z"/>
				<path style="fill:#27287A;" d="M246.933,301.461h-5.941c-0.782,0-1.422-0.64-1.422-1.422v-0.044c0-0.782,0.64-1.422,1.422-1.422
					h5.941c0.782,0,1.422,0.64,1.422,1.422v0.044C248.355,300.821,247.716,301.461,246.933,301.461z"/>
				<path style="fill:#27287A;" d="M246.753,299.104h-5.581c-0.502,0-0.912,0.41-0.912,0.912c0,0.502,0.41,0.912,0.912,0.912h5.581
					c0.502,0,0.912-0.41,0.912-0.912C247.665,299.515,247.255,299.104,246.753,299.104z"/>
			</g>
			<rect x="230.057" y="371.642" style="fill:#36349E;" width="93.899" height="9.921"/>
			<path style="opacity:0.2;fill:#27287A;" d="M294.316,375.117c-11.064,1.843-22.218,3.006-33.373,4.138
				c-10.349,1.05-20.665,1.757-30.886,0.063v2.245h93.899v-9.921h-12.281C305.88,373.037,300.048,374.162,294.316,375.117z"/>
			<g>
				<defs>
					<path id="XMLID_1_" d="M217.666,298.996c-0.559,0-1.016,0.457-1.016,1.016v57.298c0,2.488-0.386,4.783-1.127,6.865
						c-2.955,8.358-11.598,13.304-24.018,13.304c-6.774,0-10.074,1.828-10.074,5.596c0,2.549,2.671,5.108,8.622,5.108
						c2.366,0,5.646,0.701,7.85,4.022c0.802,1.209,1.625,3.057,2.031,5.799c0.152,1.005,0.244,2.133,0.254,3.402
						c0.031,2.478-0.254,5.474-1.005,9.089c-0.355,1.706-0.813,3.544-1.391,5.535c-0.924,3.168-2.163,6.693-3.778,10.643h2.194
						c1.574-3.92,2.793-7.454,3.697-10.643c0.579-1.98,1.026-3.819,1.371-5.535c0.711-3.534,0.995-6.54,0.975-9.089
						c-0.02-1.239-0.102-2.366-0.234-3.402c-0.426-3.067-1.351-5.301-2.427-6.926c-2.133-3.219-5.433-4.925-9.536-4.925
						c-4.529,0-6.591-1.594-6.591-3.077c0-0.975,0-3.565,8.043-3.565c13.507,0,23.104-5.829,26.141-15.335
						c0.68-2.112,1.036-4.408,1.036-6.865v-57.298C218.682,299.453,218.235,298.996,217.666,298.996z"/>
				</defs>
				<use xlink:href="#XMLID_1_"  style="overflow:visible;fill:#FF5650;"/>
				<clipPath id="XMLID_00000127751611170000520440000007173025339810347707_">
					<use xlink:href="#XMLID_1_"  style="overflow:visible;"/>
				</clipPath>
				<path style="opacity:0.19;clip-path:url(#XMLID_00000127751611170000520440000007173025339810347707_);fill:#FF5650;" d="
					M199.316,397.983c0.154,0.914,0.678,1.819,1.533,2.177c0.855,0.358,2.021-0.035,2.284-0.924
					c2.546,5.871,1.92,12.598,0.792,18.898c-0.591,3.298-1.315,6.601-2.669,9.666c-1.355,3.065-3.387,5.902-6.174,7.762
					c-1.826,1.218-4.063,2-6.218,1.586c-2.659-0.511-4.741-2.819-5.5-5.418c-0.759-2.599-0.358-5.421,0.561-7.968
					c0.919-2.547,2.332-4.88,3.655-7.242c3.002-5.359,5.581-10.943,8.155-16.521c0.624-1.351,1.247-2.702,1.871-4.053
					C197.972,395.153,199.162,397.07,199.316,397.983z"/>
			</g>
		</g>
		<g>
			<g>
				<g>
					<g>
						<path style="fill:#FFDDB4;" d="M343.947,118.062c-0.025,0-0.05-0.001-0.075-0.004c-0.411-0.041-0.711-0.408-0.671-0.82
							l0.784-7.832c0.041-0.411,0.411-0.709,0.82-0.67c0.411,0.041,0.711,0.408,0.671,0.82l-0.783,7.832
							C344.652,117.774,344.327,118.062,343.947,118.062z"/>
					</g>
					<g>
						<path style="fill:#FFDDB4;" d="M352.057,125.181c-0.357,0-0.673-0.256-0.737-0.62c-0.071-0.407,0.201-0.795,0.609-0.866
							l7.402-1.292c0.407-0.072,0.796,0.201,0.866,0.609c0.071,0.407-0.201,0.795-0.609,0.866l-7.402,1.292
							C352.143,125.177,352.1,125.181,352.057,125.181z"/>
					</g>
					<g>
						<path style="fill:#FFDDB4;" d="M348.932,120.362c-0.181,0-0.363-0.065-0.507-0.198c-0.304-0.28-0.324-0.754-0.044-1.058
							l6.344-6.893c0.28-0.304,0.753-0.324,1.058-0.044c0.304,0.28,0.324,0.754,0.044,1.058l-6.344,6.893
							C349.335,120.281,349.134,120.362,348.932,120.362z"/>
					</g>
				</g>
			</g>
			<g>
				<path style="fill:#FF5650;" d="M382.426,201.184h-50.459c-3.995,0-7.233-3.238-7.233-7.233V167.2
					c0-3.995,3.238-7.233,7.233-7.233h50.459c3.995,0,7.233,3.238,7.233,7.233v26.751
					C389.659,197.946,386.421,201.184,382.426,201.184z"/>
				<g>
					<rect x="340.798" y="171.391" style="opacity:0.69;fill:#FFFFFF;" width="32.797" height="19.935"/>
					<polygon style="opacity:0.69;fill:#FFFFFF;" points="356.478,171.667 340.798,191.327 373.595,191.327 					"/>
					<polygon style="fill:#FFFFFF;" points="356.478,184.892 340.798,171.391 373.595,171.391 					"/>
				</g>
				<polygon style="fill:#FF5650;" points="330.92,213.49 330.92,198.881 345.53,198.881 				"/>
			</g>
			<g>
				<path style="fill:#57D9CD;" d="M340.27,167.584H289.81c-3.995,0-7.233-3.238-7.233-7.233v-26.751
					c0-3.995,3.238-7.233,7.233-7.233h50.459c3.995,0,7.233,3.238,7.233,7.233v26.751
					C347.503,164.345,344.264,167.584,340.27,167.584z"/>
				<polygon style="fill:#57D9CD;" points="288.764,179.89 288.764,165.28 303.374,165.28 				"/>
				<g>
					<rect x="292.804" y="136.92" style="fill:#FFFFFF;" width="44.472" height="2.039"/>
					<rect x="292.804" y="142.943" style="fill:#FFFFFF;" width="39.439" height="2.039"/>
					<rect x="292.804" y="148.967" style="fill:#FFFFFF;" width="42.584" height="2.039"/>
					<rect x="292.804" y="154.991" style="fill:#FFFFFF;" width="29.513" height="2.039"/>
				</g>
			</g>
		</g>
		<g>
			<path style="opacity:0.5;fill:#FFC350;" d="M176.803,373.054c0,1.673-9.11,3.028-20.347,3.028
				c-11.237,0-20.347-1.356-20.347-3.028c0-1.673,9.11-3.028,20.347-3.028C167.693,370.026,176.803,371.382,176.803,373.054z"/>
			<g>
				<path style="fill:#57D9CD;" d="M150.759,312.285c0.83-4.734,2.21-9.534,5.248-13.258c0.712-0.873,1.683-1.745,2.803-1.618
					c0.571,0.065,1.081,0.388,1.518,0.76c2.763,2.354,3.078,6.443,3.105,10.073c0.105,14.199-1.019,28.388-2.865,42.467
					c-0.179,1.367-0.512,2.946-1.75,3.551c-1.347,0.659-5.438-0.469-6.667-1.463c-1.794-1.451-1.38-5.804-1.593-7.903
					c-0.7-6.9-1.195-13.84-0.972-20.779C149.712,320.152,150.073,316.193,150.759,312.285z"/>
				<path style="opacity:0.3;fill:#57D9CD;" d="M155.596,334.458c-4.714-5.143-5.906-12.676-5.157-20.107
					c-0.473,3.235-0.75,6.497-0.854,9.764c-0.222,6.939,0.272,13.879,0.972,20.779c0.213,2.099-0.2,6.452,1.593,7.903
					c1.229,0.994,5.32,2.122,6.667,1.463c1.238-0.605,1.571-2.185,1.75-3.551c0.556-4.242,1.037-8.495,1.448-12.754
					C159.726,337.603,157.46,336.492,155.596,334.458z"/>
				<path style="fill:#57D9CD;" d="M159.745,333.877c-0.953-0.646-1.834-1.553-2-2.692c-0.085-0.585,0.027-1.184,0.226-1.74
					c0.851-2.376,3.434-4.003,5.943-3.744c0.97,0.1,2.117,0.393,2.795-0.309c0.287-0.298,0.41-0.714,0.502-1.117
					c0.757-3.291,0.372-7.198,2.813-9.531c0.458-0.438,1.07-0.807,1.694-0.695c0.737,0.133,1.191,0.868,1.503,1.55
					c2.01,4.389,2.057,9.453,1.218,14.207c-0.259,1.467-0.631,2.986-1.61,4.109c-1.498,1.719-4.136,1.154-6.167,1.47
					C164.274,335.757,161.75,335.236,159.745,333.877z"/>
				<path style="opacity:0.3;fill:#57D9CD;" d="M174.303,318.741c-0.441,2.736-1.274,5.278-2.249,6.971
					c-2.785,4.833-9.025,7.765-14.219,5.867c0.288,0.956,1.07,1.729,1.911,2.298c2.006,1.359,4.53,1.88,6.916,1.508
					c2.032-0.316,4.669,0.249,6.167-1.47c0.979-1.123,1.351-2.642,1.61-4.109C175.084,326.151,175.195,322.315,174.303,318.741z"/>
				<path style="fill:#57D9CD;" d="M145.577,320.583c-1.443,0.115-2.962,0.217-4.272-0.398c-2.221-1.043-3.08-3.759-3.278-6.205
					c-0.244-3.02,0.164-6.091,1.188-8.943c0.382-1.065,1.005-2.232,2.114-2.455c1.014-0.204,2.029,0.527,2.496,1.45
					c0.467,0.922,0.513,1.993,0.549,3.026c0.046,1.293,0.091,2.586,0.137,3.878c0.016,0.442,0.044,0.919,0.327,1.259
					c0.372,0.447,1.032,0.488,1.613,0.494c1.406,0.014,2.812,0.028,4.218,0.042c0.798,0.008,1.652,0.033,2.302,0.496
					c1.727,1.231,1.41,4.884-0.052,6.236c-0.708,0.654-1.742,0.668-2.647,0.747C148.708,320.346,147.142,320.459,145.577,320.583z"
					/>
				<path style="opacity:0.3;fill:#57D9CD;" d="M141.23,314.059c-1.649-1.771-2.541-4.053-2.757-6.423
					c-0.459,2.078-0.616,4.223-0.445,6.344c0.197,2.446,1.057,5.162,3.278,6.205c1.31,0.615,2.829,0.513,4.272,0.398
					c1.564-0.125,3.13-0.237,4.694-0.374c0.904-0.079,1.939-0.093,2.647-0.747c0.722-0.668,1.162-1.896,1.217-3.117
					C150.192,318.631,144.211,317.261,141.23,314.059z"/>
				<g>
					<path d="M150.388,326.167c-0.124-0.06-0.217-0.088-0.355-0.099c-0.052-0.004-0.104-0.007-0.155-0.011
						c-0.089-0.007-0.177-0.017-0.266-0.022c-0.198-0.012-0.397-0.012-0.595-0.024c-0.191-0.012-0.377-0.022-0.568-0.02
						c-0.094,0.001-0.188-0.003-0.282-0.001c-0.103,0.002-0.202,0.029-0.302,0.038c-0.249,0.022-0.338,0.322-0.126,0.466
						c0.084,0.057,0.153,0.125,0.245,0.173c0.088,0.046,0.18,0.086,0.27,0.127c0.199,0.09,0.396,0.163,0.606,0.222
						c0.184,0.051,0.37,0.102,0.557,0.142c0.137,0.029,0.279,0.042,0.417,0.06c0.145,0.018,0.272,0.036,0.418-0.006
						c0.219-0.064,0.379-0.249,0.409-0.474C150.688,326.526,150.591,326.266,150.388,326.167z"/>
					<path d="M155.683,330.72c-0.04-0.123-0.116-0.242-0.234-0.304c-0.13-0.068-0.248-0.071-0.392-0.051
						c-0.146,0.02-0.283,0.077-0.421,0.126c-0.138,0.049-0.278,0.093-0.416,0.142c-0.291,0.103-0.577,0.222-0.851,0.363
						c-0.107,0.055-0.168,0.208-0.131,0.322c0.041,0.128,0.145,0.198,0.275,0.21c0.286,0.026,0.574,0.02,0.859-0.016
						c0.175-0.022,0.35-0.048,0.525-0.074c0.145-0.022,0.293-0.038,0.43-0.094c0.128-0.052,0.231-0.11,0.304-0.234
						C155.696,331.003,155.723,330.842,155.683,330.72z"/>
					<path d="M146.648,320.024c-0.004-0.087-0.031-0.153-0.065-0.233c-0.036-0.084-0.16-0.17-0.246-0.189
						c-0.109-0.025-0.219-0.015-0.317,0.042c-0.229,0.13-0.258,0.394-0.28,0.63c-0.011,0.119-0.016,0.238-0.014,0.357
						c0.002,0.139,0.008,0.282,0.038,0.418c0.027,0.123,0.063,0.245,0.098,0.366c0.031,0.107,0.134,0.174,0.244,0.159
						c0.115-0.015,0.183-0.106,0.193-0.218c0.002-0.026,0.005-0.052,0.008-0.077c0.001-0.006,0.01-0.07,0.005-0.043
						c-0.005,0.027,0.008-0.035,0.01-0.04c0.006-0.024,0.011-0.049,0.017-0.073c0.023-0.09,0.041-0.18,0.062-0.271
						c0.042-0.185,0.101-0.365,0.174-0.54c-0.014,0.034-0.028,0.067-0.042,0.1c0.031-0.073,0.062-0.147,0.088-0.222
						C146.636,320.135,146.651,320.082,146.648,320.024z"/>
					<path d="M140.245,317.323c-0.04-0.124-0.117-0.244-0.236-0.307c-0.13-0.068-0.252-0.075-0.396-0.052
						c-0.148,0.024-0.286,0.068-0.427,0.117c-0.147,0.052-0.295,0.099-0.438,0.16c-0.269,0.113-0.517,0.259-0.776,0.391
						c-0.203,0.103-0.093,0.397,0.11,0.407c0.284,0.013,0.566,0.048,0.851,0.037c0.139-0.005,0.279-0.024,0.417-0.036
						c0.181-0.016,0.361-0.037,0.537-0.085C140.145,317.885,140.33,317.587,140.245,317.323z"/>
					<path d="M139.255,309.062c-0.136-0.088-0.287-0.145-0.435-0.209c-0.143-0.062-0.285-0.125-0.428-0.187
						c-0.161-0.07-0.328-0.127-0.493-0.188c-0.152-0.056-0.297-0.093-0.456-0.124c-0.112-0.021-0.227,0.014-0.287,0.117
						c-0.056,0.095-0.042,0.231,0.04,0.308c0.242,0.227,0.52,0.419,0.805,0.59c0.296,0.178,0.593,0.374,0.915,0.498
						c0.096,0.037,0.255,0.01,0.34-0.044c0.082-0.053,0.142-0.121,0.18-0.211C139.523,309.406,139.442,309.182,139.255,309.062z"/>
					<path d="M145.437,307.295c-0.052-0.226-0.279-0.385-0.506-0.385c-0.205,0-0.347,0.121-0.483,0.254
						c-0.235,0.229-0.474,0.457-0.721,0.673c-0.272,0.238-0.52,0.503-0.771,0.763c-0.183,0.191-0.001,0.513,0.259,0.444
						c0.325-0.086,0.656-0.203,0.949-0.369c0.311-0.175,0.609-0.4,0.879-0.631C145.276,307.845,145.517,307.643,145.437,307.295z"/>
					<path d="M148.619,311.529c-0.05-0.16-0.218-0.324-0.401-0.305c-0.1,0.01-0.196,0.025-0.285,0.077
						c-0.101,0.059-0.167,0.16-0.227,0.258c-0.058,0.096-0.114,0.193-0.167,0.291c-0.127,0.232-0.237,0.468-0.328,0.716
						c-0.079,0.214-0.155,0.434-0.209,0.655c-0.059,0.242-0.084,0.497-0.11,0.744c-0.028,0.274,0.422,0.401,0.532,0.144
						c0.173-0.402,0.368-0.804,0.581-1.186c0.108-0.195,0.216-0.391,0.33-0.583C148.484,312.089,148.717,311.842,148.619,311.529z"
						/>
					<path d="M166.268,327.005c-0.119-0.273-0.22-0.609-0.32-0.914c-0.052-0.159-0.099-0.319-0.14-0.482
						c-0.02-0.081-0.036-0.164-0.064-0.243c-0.058-0.163-0.149-0.264-0.29-0.357c-0.158-0.103-0.409-0.038-0.496,0.13
						c-0.078,0.151-0.109,0.291-0.071,0.463c0.019,0.087,0.056,0.171,0.09,0.254c0.074,0.184,0.153,0.366,0.239,0.543
						c0.153,0.313,0.367,0.607,0.579,0.882c0.09,0.117,0.235,0.18,0.374,0.098C166.309,327.298,166.327,327.141,166.268,327.005z"/>
					<path d="M170.28,335.378c-0.106-0.113-0.196-0.243-0.291-0.366c-0.103-0.133-0.21-0.258-0.323-0.382
						c-0.112-0.124-0.22-0.249-0.343-0.362c-0.122-0.113-0.245-0.225-0.368-0.338c-0.113-0.104-0.278-0.119-0.401-0.024
						c-0.126,0.097-0.146,0.255-0.079,0.394l0.225,0.467c0.075,0.155,0.169,0.301,0.257,0.448c0.087,0.144,0.178,0.283,0.275,0.42
						c0.051,0.073,0.103,0.146,0.154,0.218c0.08,0.113,0.158,0.248,0.288,0.309c0.228,0.107,0.484,0.08,0.645-0.129
						C170.473,335.835,170.452,335.562,170.28,335.378z"/>
					<g>
						<path d="M175.279,326.275c-0.178-0.164-0.418-0.198-0.624-0.107c-0.001,0.001-0.001,0.002-0.007,0.005
							c-0.056,0.026-0.111,0.057-0.16,0.102c0.055-0.052,0.095-0.076,0.126-0.092c-0.008,0.002-0.01,0.004-0.021,0.007
							c-0.042,0.009-0.083,0.018-0.125,0.029c-0.089,0.022-0.179,0.045-0.269,0.067c-0.173,0.043-0.342,0.093-0.511,0.148
							c-0.169,0.055-0.338,0.111-0.507,0.165c-0.098,0.032-0.187,0.079-0.281,0.118c-0.061,0.025-0.161,0.056-0.238,0.082
							c-0.136,0.046-0.229,0.171-0.207,0.318c0.021,0.139,0.138,0.254,0.284,0.251c0.198-0.004,0.393,0.016,0.59,0.01
							c0.197-0.006,0.393-0.013,0.59-0.019c0.198-0.006,0.393-0.029,0.59-0.049c0.292-0.03,0.538-0.042,0.77-0.243
							C175.5,326.874,175.49,326.47,175.279,326.275z"/>
						<path d="M174.655,326.169c0.001-0.004-0.013,0.001-0.041,0.015c0.013-0.004,0.027-0.007,0.034-0.01
							C174.65,326.172,174.652,326.17,174.655,326.169z"/>
					</g>
					<path d="M169.007,319.839c-0.083-0.168-0.162-0.348-0.266-0.503c-0.122-0.181-0.259-0.353-0.392-0.526
						c-0.118-0.153-0.257-0.288-0.394-0.423c-0.133-0.131-0.268-0.261-0.412-0.379c-0.072-0.059-0.145-0.118-0.219-0.176
						c-0.139-0.109-0.256-0.164-0.437-0.183c-0.096-0.01-0.188,0.007-0.276,0.044c-0.197,0.083-0.313,0.267-0.311,0.483
						c0.003,0.21,0.116,0.399,0.271,0.532c0.288,0.247,0.578,0.493,0.855,0.752c0.153,0.144,0.325,0.27,0.484,0.408
						c0.104,0.091,0.214,0.172,0.326,0.254c0.04,0.029,0.08,0.059,0.12,0.089c0.018,0.013,0.035,0.027,0.053,0.04
						c0.011,0.009,0.087,0.067,0.032,0.024c0.144,0.112,0.32,0.148,0.474,0.028C169.062,320.191,169.087,320.003,169.007,319.839z"
						/>
					<path d="M162.98,320.044c-0.091-0.084-0.212-0.146-0.339-0.141c-0.134,0.006-0.237,0.055-0.339,0.141
						c-0.254,0.211-0.5,0.43-0.751,0.643c-0.249,0.211-0.48,0.445-0.722,0.665c-0.117,0.106-0.117,0.298-0.025,0.417
						c0.099,0.128,0.268,0.156,0.409,0.082c0.296-0.155,0.598-0.306,0.877-0.491c0.305-0.202,0.603-0.411,0.891-0.637
						c0.09-0.07,0.141-0.231,0.141-0.339C163.121,320.265,163.069,320.125,162.98,320.044z"/>
					<path d="M155.015,313.142c-0.094-0.107-0.183-0.217-0.271-0.329c-0.068-0.089-0.135-0.18-0.199-0.272
						c-0.096-0.138-0.197-0.271-0.3-0.404c0.026,0.034,0.053,0.068,0.079,0.102c-0.053-0.068-0.105-0.138-0.155-0.208
						c-0.044-0.061-0.085-0.127-0.136-0.182c-0.108-0.118-0.259-0.155-0.41-0.17c0.041,0.011,0.082,0.022,0.123,0.033
						c-0.145-0.043-0.296-0.039-0.423,0.059c-0.129,0.1-0.169,0.245-0.164,0.398v-0.138c-0.021,0.112-0.029,0.213,0.006,0.322
						c0.034,0.107,0.1,0.19,0.172,0.274c0.048,0.057,0.098,0.113,0.148,0.169c0.102,0.113,0.205,0.216,0.324,0.311
						c0.254,0.204,0.517,0.396,0.792,0.569c0.144,0.091,0.34,0.042,0.44-0.088C155.149,313.451,155.128,313.272,155.015,313.142z"/>
					<path d="M164.257,305.953c-0.129-0.129-0.349-0.203-0.528-0.139c-0.05,0.018-0.108,0.037-0.153,0.063
						c-0.038,0.029-0.075,0.058-0.113,0.087c0.024-0.018,0.047-0.036,0.071-0.054c-0.074,0.055-0.143,0.113-0.212,0.175
						l-0.224,0.202c-0.158,0.142-0.325,0.279-0.474,0.431c-0.146,0.147-0.291,0.294-0.437,0.441
						c-0.151,0.152-0.284,0.32-0.421,0.484c-0.208,0.249,0.047,0.595,0.346,0.449c0.192-0.094,0.385-0.183,0.568-0.293
						c0.182-0.11,0.366-0.218,0.547-0.329c0.176-0.108,0.344-0.232,0.514-0.349c0.088-0.06,0.176-0.12,0.264-0.181
						c0.164-0.112,0.359-0.244,0.391-0.458C164.426,306.283,164.406,306.103,164.257,305.953z"/>
					<path d="M153.979,303.855c-0.02-0.063-0.049-0.137-0.08-0.193c-0.059-0.107-0.142-0.214-0.219-0.307
						c-0.121-0.146-0.241-0.295-0.368-0.435c-0.124-0.137-0.249-0.272-0.374-0.408c-0.066-0.072-0.132-0.144-0.197-0.215
						c-0.031-0.034-0.06-0.071-0.093-0.102c-0.148-0.137-0.329-0.171-0.523-0.132c-0.165,0.033-0.306,0.19-0.347,0.347
						c-0.051,0.192-0.003,0.379,0.13,0.525c0.031,0.034,0.064,0.066,0.096,0.099c0.068,0.07,0.136,0.139,0.203,0.209
						c0.136,0.139,0.27,0.281,0.407,0.418c0.133,0.133,0.272,0.266,0.413,0.39c0.085,0.075,0.198,0.168,0.3,0.222
						c0.083,0.043,0.184,0.095,0.278,0.091c0.129-0.006,0.273-0.065,0.334-0.186C153.993,304.076,154.014,303.966,153.979,303.855z"
						/>
					<path d="M162.344,297.031c-0.187-0.145-0.515-0.159-0.679,0.04c-0.304,0.37-0.583,0.776-0.836,1.182
						c-0.119,0.191-0.245,0.381-0.349,0.581c-0.104,0.201-0.206,0.403-0.309,0.605c-0.068,0.135-0.047,0.3,0.079,0.394
						c0.12,0.09,0.292,0.087,0.401-0.024c0.158-0.16,0.316-0.319,0.474-0.477c0.159-0.159,0.301-0.335,0.448-0.504
						c0.149-0.171,0.291-0.344,0.43-0.523c0.158-0.201,0.326-0.398,0.473-0.607C162.625,297.488,162.533,297.177,162.344,297.031z"
						/>
					<path d="M162.775,337.928c-0.1-0.134-0.21-0.233-0.358-0.312c-0.09-0.048-0.181-0.095-0.272-0.14
						c-0.2-0.099-0.407-0.207-0.62-0.274c-0.185-0.058-0.374-0.121-0.565-0.157c-0.21-0.04-0.429-0.058-0.643-0.076
						c-0.267-0.023-0.334,0.355-0.13,0.48c0.16,0.099,0.313,0.208,0.472,0.309c0.16,0.102,0.327,0.191,0.487,0.293
						c0.16,0.103,0.333,0.186,0.497,0.283c0.181,0.106,0.374,0.27,0.585,0.305c0.198,0.033,0.381-0.007,0.509-0.174
						C162.845,338.326,162.889,338.082,162.775,337.928z"/>
					<path d="M151.091,337.703c-0.076-0.179-0.279-0.289-0.473-0.232c-0.277,0.081-0.555,0.155-0.835,0.227
						c-0.137,0.035-0.275,0.068-0.41,0.112c-0.164,0.053-0.368,0.091-0.511,0.186c-0.186,0.124-0.312,0.361-0.239,0.587
						c0.028,0.086,0.073,0.163,0.134,0.229c0.078,0.085,0.25,0.166,0.367,0.152c0.08-0.01,0.155-0.016,0.229-0.046
						c0.029-0.012,0.059-0.024,0.088-0.036c0.068-0.028,0.137-0.057,0.205-0.085c0.166-0.069,0.328-0.145,0.49-0.223
						c0.262-0.127,0.525-0.252,0.792-0.371c0.082-0.036,0.165-0.154,0.184-0.239C151.132,337.875,151.127,337.789,151.091,337.703z"
						/>
				</g>
			</g>
			<g>
				<polygon style="fill:#FF5650;" points="167.897,372.332 145.598,372.332 140.451,346.131 173.043,346.131 				"/>
				<path style="opacity:0.19;fill:#FF5650;" d="M157.79,363.086c-6.038-1.065-13.532-6.446-16.545-12.915l4.352,22.161h22.299
					l2.252-11.468C166.456,362.951,161.771,363.788,157.79,363.086z"/>
				<rect x="144.405" y="369.911" style="fill:#F2433A;" width="24.573" height="3.22"/>
				<rect x="139.532" y="341.677" style="fill:#F2433A;" width="34.32" height="7.235"/>
			</g>
		</g>
		<g>
			<g>
				<path style="fill:#57D9CD;" d="M512.838,295.584c-0.132,1.442-0.355,2.854-0.65,4.255c-1.95,9.435-5.941,20.88-10.348,29.451
					c-5.25,10.217-11.395,20.626-13.629,24.658c-2.234,4.042-20.971,12.684-28.761,13.456c-3.534,0.345-6.936,0.467-10.318-0.426
					c-3.514-0.924-7.556-1.991-11.08-0.477c-1.249,0.548-2.417,1.412-3.778,1.472c-1.858,0.102-3.737-1.351-5.514-0.345
					c-0.894,0.508-1.503,1.452-2.529,1.706c-0.244,0.061-0.498,0.071-0.701,0.203c-0.071,0.03-0.132,0.081-0.193,0.112
					c-0.081,0.03-0.173,0.03-0.264,0.03c-1.473,0.031-2.935,0.091-4.408,0.122c-2.194,0.041-4.397,0.051-6.581-0.122
					c-1.158-0.091-2.315-0.234-3.453-0.457c-4.367-0.843-9.506-3.199-11.019-7.739c-0.833-2.488-0.447-4.824,0.67-6.835
					c0.944-1.696,2.437-3.158,4.194-4.275c1.513-0.965,3.148-1.757,4.844-2.326c3.392-1.158,7.068-1.503,10.592-0.812
					c1.452,0.274,2.254,0.041,2.935-0.569c2.854-2.539,8.023-5.169,11.831-5.383c5.667-0.315,11.547-1.534,17.244-2.6
					c3.575-0.67,6.591-1.046,9.739-1.402c2.823-0.294,5.332-2.001,6.53-4.57c0.741-1.615,1.899-3.168,2.742-4.611
					c3.9-6.692,7.312-13.121,9.8-20.504c2.539-7.586,4.468-15.355,7.038-22.941c1.351-4.001,2.935-8.064,5.758-11.242
					c2.001-2.265,7.83-7.505,13.598-1.726c0.305,0.305,0.599,0.63,0.883,0.955c0.315,0.376,0.609,0.762,0.884,1.158
					C513.062,279.68,513.529,288.251,512.838,295.584z"/>
				<path style="opacity:0.5;fill:#57D9CD;" d="M509.275,274.38c0.125,3.135-0.195,6.221-0.748,8.642
					c-3.601,15.764-10.226,31.871-18.551,45.716c-7.593,12.629-17.641,22.699-32.071,26.753c-3.849,1.081-7.581,2.849-11.55,3.44
					c-4.492,0.669-8.937,1.138-13.401,2.043c-4.487,0.91-7.092,3.067-10.686,5.839c-1.732,1.336-3.673,2.575-5.783,2.983
					c1.392,0.038,2.788,0.03,4.18,0.004c1.473-0.03,2.935-0.091,4.408-0.122c0.091,0,0.183,0,0.264-0.03
					c0.061-0.031,0.122-0.081,0.193-0.112c0.203-0.132,0.457-0.142,0.701-0.203c1.026-0.254,1.635-1.198,2.529-1.706
					c1.777-1.005,3.656,0.447,5.514,0.345c1.361-0.061,2.529-0.924,3.778-1.472c3.524-1.513,7.566-0.447,11.08,0.477
					c3.382,0.894,6.784,0.772,10.318,0.426c7.789-0.772,26.526-9.414,28.761-13.456c2.234-4.032,8.378-14.441,13.629-24.658
					c4.408-8.571,8.399-20.017,10.348-29.451c0.295-1.401,0.518-2.813,0.65-4.255C513.507,288.486,513.08,280.234,509.275,274.38z"
					/>
				<path style="fill:#FFFFFF;" d="M508.664,280.797c-0.396,2.752-1.076,5.464-1.777,8.145c-0.691,2.651-1.442,5.291-2.234,7.901
					c-3.138,10.318-7.119,20.372-11.862,30.05c-2.234,4.56-4.58,9.13-7.322,13.416c-2.417,3.768-5.291,7.363-9.008,9.942
					c-4.326,2.996-9.506,4.022-14.614,4.854c-5.575,0.904-11.191,1.503-16.838,1.798c-5.606,0.284-11.435-0.203-16.868,1.473
					c-4.986,1.544-9.231,4.702-13.436,7.688c-0.091,0.061-0.203-0.081-0.112-0.152c0.944-0.731,1.879-1.473,2.843-2.173
					c4.083-2.945,8.429-5.565,13.436-6.51c2.641-0.498,5.332-0.619,8.003-0.691c2.793-0.091,5.575-0.183,8.368-0.376
					c5.636-0.376,11.252-1.046,16.807-2.051c2.559-0.467,5.108-1.026,7.535-1.97c2.265-0.873,4.357-2.133,6.225-3.686
					c3.534-2.935,6.225-6.743,8.551-10.674c2.62-4.438,4.946-9.059,7.15-13.72c4.55-9.668,8.317-19.702,11.273-29.969
					c0.751-2.61,1.452-5.23,2.092-7.86c0.66-2.732,1.229-5.494,1.401-8.297c0.112-1.777,0.03-3.565-0.264-5.291
					c0.315,0.376,0.609,0.762,0.884,1.158C509.131,276.126,508.999,278.512,508.664,280.797z"/>
				<path style="fill:#57D9CD;" d="M421.554,365.745c-1.213,2.73-4.604,3.976-7.464,3.932c-1.159-0.087-2.318-0.228-3.456-0.455
					c-4.366-0.845-9.511-3.196-11.017-7.735c-0.834-2.492-0.455-4.832,0.672-6.836c3.044-2.535,7.301-2.416,11.245-1.029
					c5.406,1.896,10.226,6.196,10.475,9.327C422.095,364.012,421.922,364.944,421.554,365.745z"/>
			</g>
			<g>
				<path style="fill:#EB7850;" d="M394.788,362.509c2.271-0.752,4.284-2.298,5.536-4.341c1.223-1.995-0.998-2.212-2.474-2.163
					c-1.246,0.042-2.494,0.074-3.737-0.045c-3.671-0.351-6.189-0.861-9.348,1.573c-2.914,2.244-5.827,4.488-8.741,6.732
					c-0.127,0.098-0.267,0.218-0.272,0.379c-0.005,0.167,0.136,0.298,0.267,0.402c0.879,0.698,1.882,1.325,3.001,1.408
					c2.451,0.181,4.288-2.189,6.602-3.016c2.743-0.98,5.708-0.016,8.499-0.733C394.346,362.647,394.569,362.582,394.788,362.509z"/>
				<path style="fill:#FF8558;" d="M422.009,362.951c-0.249-3.131-5.07-7.431-10.475-9.327c-0.958,0.544-2.65,1.063-4.342,1.534
					c-4.564-1.516-9.306-2.316-11.769-2.176c-1.533,0.087-3.089,0.289-4.481,0.935c-1.283,0.595-2.37,1.542-3.366,2.546
					c-3.252,3.28-5.762,7.425-6.496,11.985c-0.078,0.488-0.119,1.043,0.201,1.42c0.191,0.225,0.483,0.343,0.774,0.389
					c1.346,0.213,2.497-0.908,3.396-1.932c2.331-2.653,4.662-5.307,6.994-7.96c-2.536,3.355-5.13,6.827-6.178,10.9
					c-0.049,0.193-0.094,0.406-0.006,0.585c0.094,0.191,0.312,0.285,0.518,0.338c1.582,0.41,3.145-0.664,4.344-1.774
					c1.333-1.234,2.547-2.59,3.759-3.944c1.766-1.973,3.532-3.945,5.298-5.918c-2.437,2.637-4.212,5.88-5.12,9.354
					c-0.187,0.717-0.249,1.658,0.399,2.017c0.653,0.361,1.417-0.198,1.951-0.72c2.683-2.621,5.366-5.242,8.049-7.863
					c-1.199,1.677-2.258,3.453-3.164,5.305c-0.272,0.555-0.52,1.252-0.157,1.753c0.465,0.642,1.462,0.39,2.185,0.064
					c2.298-1.035,4.554-2.164,6.759-3.382c1.061-0.586,6.379-0.221,7.627-1.095c0.948-0.079,1.896-0.158,2.845-0.24
					C421.922,364.944,422.095,364.012,422.009,362.951z"/>
				<path style="opacity:0.15;fill:#FF8558;" d="M422.009,362.951c-0.249-3.131-5.07-7.431-10.475-9.327
					c-0.957,0.544-2.65,1.063-4.342,1.534c-0.456-0.151-0.914-0.29-1.371-0.427c0.104,0.228,0.209,0.456,0.29,0.683
					c1.701,4.744,0.538,10.431-2.884,14.011c-0.104,0.461-0.228,0.914-0.362,1.361c0.464,0.048,1.013-0.123,1.457-0.323
					c2.298-1.035,4.554-2.164,6.759-3.382c1.061-0.586,6.379-0.221,7.627-1.095c0.948-0.079,1.896-0.158,2.845-0.24
					C421.922,364.944,422.095,364.012,422.009,362.951z"/>
				<path style="fill:#FF8558;" d="M422.009,362.951c-0.249-3.131-5.07-7.431-10.475-9.327c-0.297,0.169-0.672,0.335-1.089,0.499
					c3.616,2.489,6.432,6.659,7.871,10.551c0.147,0.397,0.295,0.84,0.437,1.309c0.934-0.078,1.868-0.156,2.802-0.236
					C421.922,364.944,422.095,364.012,422.009,362.951z"/>
			</g>
		</g>
		<g>
			<g>
				<path style="fill:#57D9CD;" d="M395.602,349.947c-3.098,2.336-9.983,4.052-17.112,5.423c-2.844,1.259-5.697,2.508-8.541,3.768
					c-1.016,0.447-2.011,0.884-3.026,1.31c-3.666,1.523-7.434,2.783-11.273,3.778c-5.91,1.523-12.034,2.376-18.107,2.051
					c-1.737-0.102-3.453-0.284-5.159-0.579c-0.193,0.01-0.396,0.03-0.589,0.041c-4.184,0.183-8.47,0.457-12.583-0.589
					c-0.823-0.203-1.615-0.498-2.376-0.823c-0.315-0.335-0.508-0.782-0.873-1.066c-3.575-2.823-4.235-5.687-3.524-8.145
					c0.873-3.067,3.89-5.484,5.971-6.337c3.747-1.544,8.5-2.326,10.409-2.143c6.002,0.559,9.099-3.016,14.259-4.133
					c6.174-1.361,21.905-10.653,30.964-11.852c1.787-0.244,3.625-0.163,5.575,0.274c5.118,1.178,10.288,3.544,14.157,7.19
					c0.142,0.132,0.274,0.264,0.396,0.396c0.477,0.447,0.914,0.924,1.33,1.412C398.111,342.99,399.268,347.184,395.602,349.947z"/>
				<path style="opacity:0.5;fill:#57D9CD;" d="M395.501,339.923c-0.11-0.129-0.226-0.254-0.339-0.381
					c-1.933,2.296-5.909,3.848-7.981,4.964c-7.777,4.188-15.89,7.259-23.95,10.823c-6.461,2.856-13.064,7.452-19.961,10.91
					c4.171-0.25,8.327-0.968,12.382-2.013c3.839-0.995,7.607-2.255,11.273-3.778c1.016-0.427,2.011-0.863,3.026-1.31
					c2.844-1.259,5.697-2.508,8.541-3.768c7.129-1.371,14.015-3.087,17.112-5.423C399.268,347.184,398.111,342.99,395.501,339.923z"
					/>
				<path style="fill:#FFFFFF;" d="M393.801,338.15c-0.923,1.035-3.622,2.362-5.582,3.276c-4.296,2.011-8.825,3.534-13.334,4.946
					c-9.049,2.833-18.321,5.037-27.095,8.683c-2.201,0.916-4.37,1.926-6.477,3.049c-0.004,0.141-0.013,0.286-0.031,0.422
					c6.015-3.158,12.462-5.437,18.989-7.401c9.12-2.752,18.463-4.997,27.217-8.825c2.285-0.995,5.821-2.668,6.692-3.851
					C394.059,338.316,393.943,338.282,393.801,338.15z"/>
				<path style="fill:#57D9CD;" d="M339.776,364.391c-0.628,0.747-1.387,1.365-2.232,1.885c-1.733-0.098-3.456-0.282-5.156-0.574
					c-0.195,0.011-0.401,0.022-0.596,0.033c-4.182,0.184-8.471,0.466-12.577-0.585c-0.823-0.206-1.614-0.498-2.383-0.823
					c-0.314-0.336-0.509-0.78-0.867-1.062c-3.575-2.827-4.236-5.687-3.532-8.146c1.593-1.517,3.607-2.611,5.676-3.51
					c3.488-1.517,7.301-2.524,11.147-2.34c0.098,0,0.195,0.011,0.293,0.011c3.932,0.26,7.875,1.928,10.14,4.907
					c0.975,1.3,1.582,2.838,1.744,4.42C341.661,360.665,341.141,362.766,339.776,364.391z"/>
			</g>
			<g>
				<path style="fill:#FF8558;" d="M340.142,358.92c0.441-0.062,0.876-0.157,1.291-0.313c-0.163-1.582-0.769-3.12-1.744-4.42
					c-2.264-2.979-6.207-4.647-10.14-4.907c-0.098,0-0.195-0.011-0.293-0.011c-1.208,0.386-2.375,0.91-3.485,1.513
					c-3.125-0.171-5.769-0.02-7.324,0.394c-2.641,0.704-5.639,2.063-7.444,4.861c-1.949,3.022-3.086,7.198-2.934,9.321
					c0.031,0.437,0.114,0.926,0.498,1.188c0.23,0.157,0.823,0.327,1.841-0.84c0.651-0.747,3.503-7.051,4.651-8.072
					c-1.675,3.404-3.568,7.594-3.678,11.324c-0.005,0.177-0.001,0.37,0.121,0.507c0.131,0.146,0.357,0.185,0.564,0.19
					c1.588,0.042,2.835-1.196,3.731-2.394c0.995-1.331,1.851-2.745,2.706-4.155c1.129-1.864,2.258-3.728,3.388-5.592
					c-1.762,3.002-4.405,8.842-4.505,11.823c-0.022,0.657,0.123,1.484,0.815,1.666c0.697,0.183,1.299-0.452,1.692-1.009
					c1.973-2.798,5.978-8.89,7.952-11.688c-0.772,1.688-3.522,6.708-3.978,8.489c-0.137,0.534-0.221,1.186,0.231,1.548
					c0.579,0.463,1.47,0.048,2.083-0.377c1.952-1.35,5.887-6.122,7.801-7.537c1.495-1.106,2.037,1.135,1.996,1.624
					c-0.156,1.87,1.213,3.662,3.112,4.072c0.412,0.089,1.015-0.005,1.063-0.41c0.017-0.146-0.054-0.282-0.108-0.416
					C339.309,363.478,340.612,361.268,340.142,358.92z"/>
				<path style="opacity:0.15;fill:#FF8558;" d="M340.142,358.92c0.441-0.062,0.876-0.157,1.291-0.313
					c-0.163-1.582-0.769-3.12-1.744-4.42c-2.264-2.979-6.207-4.647-10.14-4.907c-0.098,0-0.195-0.011-0.292-0.011
					c-0.684,0.218-1.35,0.49-2.004,0.786c1.042,1.082,1.854,2.385,2.27,3.745c1.353,4.42-1.099,10.132-4.736,13.361
					c-0.205,0.41-0.408,0.819-0.613,1.226c0.579,0.376,1.419-0.014,2.008-0.421c1.952-1.35,5.887-6.122,7.801-7.537
					c1.495-1.106,2.037,1.135,1.996,1.624c-0.156,1.87,1.213,3.662,3.112,4.072c0.412,0.089,1.015-0.005,1.063-0.41
					c0.017-0.146-0.054-0.282-0.108-0.416C339.309,363.478,340.612,361.268,340.142,358.92z"/>
				<path style="fill:#FF8558;" d="M337.388,355.289c1.238,0.84,2.516,2.08,3.427,3.505c0.21-0.05,0.416-0.111,0.618-0.187
					c-0.163-1.582-0.769-3.12-1.744-4.42c-2.264-2.979-6.207-4.647-10.14-4.907c-0.098,0-0.195-0.011-0.292-0.011
					c-0.976,0.312-1.916,0.73-2.831,1.192C330.323,351.101,334.253,353.162,337.388,355.289z"/>
			</g>
		</g>
		<g>
			<ellipse style="opacity:0.5;fill:#FFC350;" cx="509.648" cy="381.599" rx="20" ry="3.198"/>
			<g>
				<path style="fill:#FFFFFF;" d="M500.611,345.875c-0.903-0.424-1.955-0.071-2.926,0.16c-3.564,0.85-7.518-0.156-10.243-2.605
					c-2.725-2.449-4.145-6.274-3.679-9.908c0.285-2.219,1.312-4.432,3.156-5.698c1.828-1.256,4.24-1.429,6.395-0.906
					c3.17,0.77,5.952,3.004,7.387,5.933c-0.625-0.668-0.664-1.803-0.087-2.512c0.577-0.709,1.697-0.902,2.477-0.426
					c-1.874-3.138-1.174-7.572,1.575-9.981c2.749-2.409,7.236-2.52,10.101-0.25c2.865,2.27,3.783,6.663,2.068,9.89
					c0.211-1.304,1.688-2.049,3.009-2.044c2.395,0.009,4.626,1.984,4.926,4.36c0.3,2.376-1.371,4.843-3.689,5.447
					c1.21-1.256,3.586-0.565,4.344,1.006c0.758,1.571,0.181,3.523-0.944,4.855c-1.125,1.332-2.705,2.181-4.241,3.006
					c-0.703,0.378-1.517,0.972-1.375,1.758c0.139,0.772,1.079,1.054,1.644,1.598c0.714,0.687,0.794,1.854,0.402,2.765
					c-0.391,0.91-1.167,1.6-1.989,2.153c-3.713,2.497-8.464,2.67-12.938,2.76c-2.501,0.05-7.605-0.534-6.785-4.281
					C499.597,351.135,503.927,347.432,500.611,345.875z"/>
				<path style="opacity:0.08;fill:#27287A;" d="M520.24,346.202c1.536-0.826,3.116-1.674,4.241-3.007
					c1.125-1.332,1.702-3.284,0.944-4.855c-0.529-1.097-1.844-1.746-3.003-1.622c1.577-1.025,2.586-2.949,2.349-4.831
					c-0.093-0.738-0.389-1.428-0.802-2.042c-0.035,0.084-0.055,0.173-0.093,0.256c-1.509,3.332-5.417,5.555-8.965,4.671
					c0.805,1.277,0.667,2.986-0.03,4.325c-0.698,1.339-1.876,2.362-3.11,3.23c-1.864,1.311-4.05,2.374-6.325,2.225
					c-2.274-0.149-4.559-1.859-4.693-4.134c-0.65,0.981-1.59,1.827-2.734,2.102c-1.144,0.276-2.493-0.137-3.086-1.154
					c-0.315-0.54-0.325-1.226-0.104-1.805c-1.546,1.259-3.582,1.923-5.568,2.331c-0.969,0.199-1.961,0.34-2.946,0.336
					c0.349,0.425,0.718,0.833,1.128,1.201c2.725,2.449,6.679,3.455,10.243,2.605c0.971-0.232,2.023-0.585,2.926-0.16
					c3.315,1.557-1.014,5.261-1.412,7.08c-0.82,3.747,4.284,4.331,6.785,4.281c4.473-0.089,9.225-0.262,12.938-2.76
					c0.822-0.553,1.598-1.243,1.99-2.153c0.392-0.91,0.312-2.077-0.402-2.765c-0.565-0.544-1.505-0.826-1.644-1.598
					C518.723,347.174,519.537,346.58,520.24,346.202z"/>
				<path style="fill:#5565EB;" d="M525.579,352.987c-0.495,0-0.979,0.044-1.457,0.108v-2.233c0-1.509-1.224-2.733-2.733-2.733
					h-23.828c-1.509,0-2.733,1.223-2.733,2.733v27.894c0,1.509,1.224,2.733,2.733,2.733h23.828c1.509,0,2.733-1.223,2.733-2.733
					v-0.938c0.478,0.064,0.963,0.108,1.457,0.108c6.439,0,11.66-5.583,11.66-12.469C537.239,358.57,532.019,352.987,525.579,352.987
					z M525.579,373.717c-0.499,0-0.985-0.055-1.457-0.152v-16.219c0.472-0.097,0.959-0.152,1.457-0.152
					c4.266,0,7.725,3.698,7.725,8.261S529.845,373.717,525.579,373.717z"/>
				<path style="opacity:0.2;fill:#27287A;" d="M525.579,352.987c-0.495,0-0.979,0.044-1.457,0.108v-2.233
					c0-1.473-1.167-2.664-2.626-2.722c-0.861,5.063-3.512,10.365-5.618,13.413c-3.716,5.379-12.995,16.223-21.05,16.185v1.018
					c0,1.509,1.224,2.733,2.733,2.733h23.828c1.509,0,2.733-1.223,2.733-2.733v-0.938c0.478,0.064,0.963,0.108,1.457,0.108
					c6.439,0,11.66-5.583,11.66-12.469C537.239,358.57,532.019,352.987,525.579,352.987z M525.579,373.717
					c-0.499,0-0.985-0.055-1.457-0.152v-16.219c0.472-0.097,0.959-0.152,1.457-0.152c4.266,0,7.725,3.698,7.725,8.261
					S529.845,373.717,525.579,373.717z"/>
			</g>
		</g>
	</g>
</g>
</svg>
